<svg width="36" height="24" viewBox="0 0 36 24" fill="none" xmlns="http://www.w3.org/2000/svg">
<rect width="36" height="24" fill="white"/>
<path d="M7 1V11.9656V23H17.9997H29V12.0003V1H18.0039H7Z" fill="white"/>
<path d="M25.0767 6.39735L25.7806 4.48334H29V1H7V23H29V19.524H25.964L24.842 18.2113L23.676 19.524H15.052V12.5353H12.2066L15.7633 4.48334H19.2246L20.0606 6.30934V4.48334H24.358L25.0767 6.39735ZM22.6493 7.66601L22.642 6.896L22.9353 7.66601L24.3653 11.4867H25.788L27.2253 7.66601L27.504 6.90334V11.4867H29V5.62H26.514L25.3846 8.59736L25.084 9.404L24.776 8.59736L23.6393 5.62H21.1533V11.4867H22.6493V7.66601ZM19.43 11.4867H21.1533L18.572 5.62H16.57L13.974 11.4867H15.6753L16.13 10.3573H18.9753L19.43 11.4867ZM17.2594 7.60736L17.5526 6.874L17.846 7.60736L18.4546 9.08865H16.6506L17.2594 7.60736ZM16.2546 12.5426V18.3873H21.1533V17.1187H17.7506V16.0994H21.0873V14.838H17.7506V13.8113H21.1533V12.5426H16.2546ZM26.602 18.3873H28.5453L25.8026 15.454L28.5453 12.5426H26.6313L24.864 14.442L23.104 12.5426H21.1533L23.8886 15.476L21.1533 18.3873H23.0453L24.8273 16.4807L26.602 18.3873ZM27.3426 15.4467L29 17.1333V13.782L27.3426 15.4467Z" fill="#006FCF"/>
</svg>
