<svg width="36" height="24" viewBox="0 0 36 24" fill="none" xmlns="http://www.w3.org/2000/svg">
<rect width="36" height="24" fill="white"/>
<path d="M11.6404 2.5249C6.43167 2.5249 2.19385 6.76194 2.19385 11.9701C2.19385 17.1788 6.43167 21.4167 11.6404 21.4167H24.3624C29.5706 21.4167 33.8079 17.1788 33.8079 11.9701C33.8079 6.76194 29.5706 2.5249 24.3624 2.5249" fill="white"/>
<path d="M26.5862 11.3935L30.8167 16.4246C31.6928 15.1584 32.2076 13.6236 32.2076 11.9704C32.2076 10.2252 31.6341 8.6115 30.6669 7.30737" fill="#E31F28"/>
<path d="M14.5983 6.88243C17.7575 6.88243 20.138 7.6863 20.3831 10.3481L23.708 6.88217H30.3284C28.8881 5.19649 26.7479 4.12561 24.3623 4.12561H11.6402C9.2538 4.12561 7.11308 5.19649 5.67285 6.88243" fill="#E31F28"/>
<path d="M9.39304 10.2383L8.26501 13.34H12.8166C14.1623 13.34 14.5693 12.7829 14.8706 11.7105C15.1685 10.6497 14.4199 10.2383 13.5005 10.2383" fill="#E31F28"/>
<path d="M23.7356 16.8482L20.2191 12.4042C19.5687 15.4342 17.4404 16.8477 13.4504 16.8477H5.4989C6.93731 18.6552 9.1557 19.8162 11.6403 19.8162H24.3623C26.8462 19.8162 29.064 18.6557 30.5025 16.8482" fill="#E31F28"/>
</svg>
