<svg width="36" height="24" viewBox="0 0 36 24" fill="none" xmlns="http://www.w3.org/2000/svg">
<rect width="36" height="24" fill="white"/>
<path d="M20.1476 22.0013C25.5651 22.0275 30.51 17.5424 30.51 12.0865C30.51 6.12057 25.5651 1.99631 20.1476 1.99854H15.485C10.0028 1.99631 5.48999 6.12168 5.48999 12.0865C5.48999 17.5435 10.0028 22.0275 15.485 22.0013H20.1476Z" fill="#0079BE"/>
<path d="M15.5073 2.82532C10.4973 2.82699 6.43819 6.92452 6.43652 11.9819C6.43819 17.0386 10.4973 21.1362 15.5073 21.1378C20.5179 21.1362 24.5787 17.0386 24.5792 11.9819C24.5787 6.92452 20.5184 2.82699 15.5073 2.82532ZM9.75797 11.9819C9.75692 10.8126 10.1086 9.67014 10.7672 8.7039C11.4257 7.73767 12.3604 6.99257 13.4491 6.56599V17.3972C12.3603 16.9709 11.4255 16.2259 10.7669 15.2597C10.1084 14.2936 9.75673 13.1511 9.75797 11.9819ZM17.565 17.3994V6.56543C18.6545 6.9914 19.59 7.73644 20.249 8.703C20.908 9.66955 21.2598 10.8126 21.2583 11.9824C21.2596 13.1522 20.9077 14.2951 20.2487 15.2616C19.5898 16.2281 18.6544 16.9732 17.565 17.3994Z" fill="white"/>
<path d="M20.1476 22.0013C25.5651 22.0275 30.51 17.5424 30.51 12.0865C30.51 6.12057 25.5651 1.99631 20.1476 1.99854H15.485C10.0028 1.99631 5.48999 6.12168 5.48999 12.0865C5.48999 17.5435 10.0028 22.0275 15.485 22.0013H20.1476Z" fill="#0079BE"/>
<path d="M15.5073 2.82532C10.4973 2.82699 6.43819 6.92452 6.43652 11.9819C6.43819 17.0386 10.4973 21.1362 15.5073 21.1378C20.5179 21.1362 24.5787 17.0386 24.5792 11.9819C24.5787 6.92452 20.5184 2.82699 15.5073 2.82532ZM9.75797 11.9819C9.75692 10.8126 10.1086 9.67014 10.7672 8.7039C11.4257 7.73767 12.3604 6.99257 13.4491 6.56599V17.3972C12.3603 16.9709 11.4255 16.2259 10.7669 15.2597C10.1084 14.2936 9.75673 13.1511 9.75797 11.9819ZM17.565 17.3994V6.56543C18.6545 6.9914 19.59 7.73644 20.249 8.703C20.908 9.66955 21.2598 10.8126 21.2583 11.9824C21.2596 13.1522 20.9077 14.2951 20.2487 15.2616C19.5898 16.2281 18.6544 16.9732 17.565 17.3994Z" fill="white"/>
</svg>
