<svg width="36" height="24" viewBox="0 0 36 24" fill="none" xmlns="http://www.w3.org/2000/svg">
<rect width="36" height="24" fill="white"/>
<path d="M3.05388 1.76761C2.47214 1.76761 2 2.23939 2 2.82149V21.179C2 21.7604 2.47214 22.2325 3.05388 22.2325H32.9461C33.5282 22.2325 34 21.7604 34 21.179V2.82149C34 2.23939 33.5282 1.76761 32.9461 1.76761H3.05388ZM2.35129 21.179V2.82149C2.35129 2.43401 2.6664 2.1189 3.05388 2.1189H22.5443C28.0017 2.1189 32.4255 6.54309 32.4255 12.0001C32.4255 17.4571 28.0017 21.8813 22.5443 21.8813H3.05388C2.6664 21.8813 2.35129 21.5661 2.35129 21.179Z" fill="url(#paint0_linear_1756_27496)"/>
<path d="M2.32996 2.83691V21.1941C2.32996 21.5816 2.64507 21.8967 3.03254 21.8967H22.523C27.9803 21.8967 32.4042 17.4728 32.4042 12.0155C32.4042 6.55816 27.9803 2.13432 22.523 2.13432H3.03254C2.64507 2.13432 2.32996 2.44943 2.32996 2.83691Z" fill="white"/>
<path d="M5.47036 12.9774C5.20372 13.218 4.8577 13.3231 4.30968 13.3231H4.08205V10.4474H4.30968C4.8577 10.4474 5.19002 10.545 5.47036 10.799C5.76369 11.06 5.94004 11.4651 5.94004 11.8814C5.94004 12.299 5.76369 12.7164 5.47036 12.9774ZM4.47971 9.71036H3.23438V14.059H4.47303C5.13136 14.059 5.60701 13.9041 6.0247 13.557C6.52072 13.1464 6.81405 12.5277 6.81405 11.888C6.81405 10.6044 5.85502 9.71036 4.47971 9.71036Z" fill="#373535"/>
<path d="M7.20435 14.0593H8.05237V9.71067H7.20435V14.0593Z" fill="#373535"/>
<path d="M10.1267 11.3792C9.61763 11.1909 9.46798 11.0666 9.46798 10.8319C9.46798 10.5579 9.73461 10.3496 10.1 10.3496C10.3543 10.3496 10.563 10.4543 10.7839 10.7019L11.228 10.1209C10.8633 9.80157 10.4267 9.63857 9.95031 9.63857C9.18063 9.63857 8.59361 10.1729 8.59361 10.8846C8.59361 11.4839 8.86727 11.7902 9.66365 12.0772C9.99563 12.1942 10.1646 12.2726 10.25 12.3249C10.4193 12.4352 10.5046 12.5919 10.5046 12.7749C10.5046 13.1273 10.2243 13.3883 9.84562 13.3883C9.44128 13.3883 9.11528 13.1859 8.91997 12.8083L8.37195 13.3359C8.76294 13.9096 9.23227 14.1636 9.87759 14.1636C10.7593 14.1636 11.3776 13.5776 11.3776 12.7359C11.3776 12.0449 11.0917 11.7323 10.1267 11.3792Z" fill="#373535"/>
<path d="M11.6451 11.8879C11.6451 13.1659 12.6488 14.1569 13.9405 14.1569C14.3055 14.1569 14.6181 14.0853 15.0039 13.904V12.9053C14.6645 13.2446 14.3645 13.3816 13.9798 13.3816C13.1255 13.3816 12.5192 12.7623 12.5192 11.8816C12.5192 11.0466 13.1448 10.3882 13.9405 10.3882C14.3448 10.3882 14.6515 10.5323 15.0039 10.8772V9.87922C14.6315 9.69058 14.3255 9.61224 13.9605 9.61224C12.6755 9.61224 11.6451 10.6233 11.6451 11.8879Z" fill="#373535"/>
<path d="M21.7296 12.6313L20.5697 9.7103H19.6433L21.4887 14.171H21.945L23.8237 9.7103H22.9044L21.7296 12.6313Z" fill="#373535"/>
<path d="M24.207 14.0592H26.6127V13.3229H25.0547V12.1492H26.5551V11.4126H25.0547V10.4476H26.6127V9.71055H24.207V14.0592Z" fill="#373535"/>
<path d="M28.2698 11.7126H28.0218V10.3956H28.2828C28.8115 10.3956 29.0985 10.6169 29.0985 11.0402C29.0985 11.4772 28.8115 11.7126 28.2698 11.7126ZM29.9718 10.9942C29.9718 10.1802 29.4104 9.71055 28.4324 9.71055H27.1744V14.0592H28.0218V12.3122H28.1324L29.3064 14.0592H30.3498L28.9804 12.2272C29.6198 12.0972 29.9718 11.6602 29.9718 10.9942Z" fill="#373535"/>
<path d="M30.4863 9.99091H30.4705V9.89044H30.487C30.5323 9.89044 30.5559 9.90695 30.5559 9.93998C30.5559 9.9737 30.532 9.99091 30.4863 9.99091ZM30.6475 9.93857C30.6475 9.86199 30.5948 9.82018 30.5021 9.82018H30.3792V10.2038H30.4705V10.0552L30.578 10.2038H30.6897L30.5636 10.0457C30.6173 10.031 30.6475 9.99162 30.6475 9.93857Z" fill="#373535"/>
<path d="M30.5193 10.2859C30.3728 10.2859 30.253 10.164 30.253 10.0116C30.253 9.8591 30.3718 9.73685 30.5193 9.73685C30.6655 9.73685 30.7838 9.86191 30.7838 10.0116C30.7838 10.1626 30.6655 10.2859 30.5193 10.2859ZM30.5207 9.67678C30.3345 9.67678 30.1866 9.82538 30.1866 10.0112C30.1866 10.1967 30.3363 10.3456 30.5207 10.3456C30.702 10.3456 30.8509 10.1953 30.8509 10.0112C30.8509 9.82819 30.702 9.67678 30.5207 9.67678Z" fill="#373535"/>
<g filter="url(#filter0_i_1756_27496)">
<path d="M17.6213 9.57978C18.9158 9.58435 19.9655 10.6294 19.9655 11.9243C19.9655 13.2192 18.9158 14.2685 17.6213 14.2685C16.3264 14.2685 15.2729 13.2192 15.2767 11.9243C15.281 10.6263 16.3324 9.57557 17.6213 9.57978Z" fill="url(#paint1_linear_1756_27496)"/>
</g>
<defs>
<filter id="filter0_i_1756_27496" x="15.2767" y="9.57977" width="5.18872" height="5.18872" filterUnits="userSpaceOnUse" color-interpolation-filters="sRGB">
<feFlood flood-opacity="0" result="BackgroundImageFix"/>
<feBlend mode="normal" in="SourceGraphic" in2="BackgroundImageFix" result="shape"/>
<feColorMatrix in="SourceAlpha" type="matrix" values="0 0 0 0 0 0 0 0 0 0 0 0 0 0 0 0 0 0 127 0" result="hardAlpha"/>
<feOffset dx="0.5" dy="0.5"/>
<feGaussianBlur stdDeviation="0.25"/>
<feComposite in2="hardAlpha" operator="arithmetic" k2="-1" k3="1"/>
<feColorMatrix type="matrix" values="0 0 0 0 0 0 0 0 0 0 0 0 0 0 0 0 0 0 0.45 0"/>
<feBlend mode="normal" in2="shape" result="effect1_innerShadow_1756_27496"/>
</filter>
<linearGradient id="paint0_linear_1756_27496" x1="7.58872" y1="6.96939" x2="18.175" y2="27.2847" gradientUnits="userSpaceOnUse">
<stop stop-color="#D05D2C"/>
<stop offset="1" stop-color="#ECA442"/>
</linearGradient>
<linearGradient id="paint1_linear_1756_27496" x1="16.0956" y1="10.7716" x2="18.9938" y2="14.3284" gradientUnits="userSpaceOnUse">
<stop stop-color="#D05D2C"/>
<stop offset="1" stop-color="#ECA442"/>
</linearGradient>
</defs>
</svg>
