<svg width="36" height="24" viewBox="0 0 36 24" fill="none" xmlns="http://www.w3.org/2000/svg">
<rect width="36" height="24" fill="white"/>
<path d="M7.41077 8.7086C7.7565 8.59312 8.12612 8.53097 8.51082 8.53097C10.1889 8.53097 11.5898 9.7228 11.9107 11.3071L14.2894 10.822C13.7435 8.1297 11.3642 6.10354 8.51082 6.10354C7.85702 6.10354 7.22896 6.21005 6.64124 6.40635L7.41077 8.7086Z" fill="#FFCC2A"/>
<path d="M4.60364 16.4174L6.21217 14.5988C5.4941 13.9626 5.04115 13.0342 5.04115 12C5.04115 10.9665 5.49356 10.0386 6.21119 9.40311L4.60227 7.58436C3.38292 8.66468 2.6134 10.2428 2.6134 12C2.6134 13.7584 3.38323 15.337 4.60364 16.4174Z" fill="#00A7E1"/>
<path d="M11.91 12.6962C11.5878 14.2796 10.1882 15.4691 8.51079 15.4691C8.12577 15.4691 7.7552 15.4071 7.40967 15.2909L6.63916 17.5941C7.22687 17.7902 7.85623 17.8964 8.51079 17.8964C11.3614 17.8964 13.7403 15.8736 14.2884 13.1838L11.91 12.6962Z" fill="#EF4D37"/>
<path d="M21.1228 13.958C21.122 13.9587 21.1215 13.9593 21.1209 13.9599L21.0532 13.9143C20.8584 14.2305 20.5545 14.4865 20.1708 14.6529C19.441 14.9703 18.7647 14.8887 18.279 14.4627L18.2343 14.5306C18.2338 14.5298 18.2336 14.5292 18.233 14.5292L17.4047 15.7683C17.6103 15.9113 17.8311 16.0322 18.0629 16.129C18.9779 16.509 19.9141 16.4916 20.8363 16.0904C21.5034 15.8014 22.0267 15.3605 22.3845 14.8018L21.1228 13.958ZM18.5371 10.9008C17.7663 11.2321 17.369 11.955 17.4508 12.8027L20.7156 11.3975C20.1542 10.7378 19.4235 10.5191 18.5371 10.9008ZM16.3694 14.6755C16.2914 14.5493 16.1856 14.3473 16.1217 14.1988C15.745 13.3243 15.727 12.4193 16.0451 11.5505C16.3949 10.5978 17.063 9.86836 17.9262 9.497C19.0115 9.02993 20.2118 9.12202 21.2521 9.7392C21.9129 10.1183 22.3812 10.7036 22.737 11.5312C22.7823 11.6371 22.8221 11.7503 22.861 11.8465L16.3694 14.6755Z" fill="#373535"/>
<path d="M25.1301 7.67203V14.5611L26.2011 14.9952L25.5926 16.4153L24.4104 15.923C24.1451 15.8081 23.9644 15.6323 23.8277 15.4337C23.697 15.2313 23.5991 14.9537 23.5991 14.5799V7.67203H25.1301Z" fill="#373535"/>
<path d="M27.9047 12.8062C27.9054 12.2195 28.1642 11.6935 28.5742 11.3359L27.4754 10.1107C26.7302 10.7695 26.2607 11.7321 26.2599 12.8045C26.2587 13.8773 26.7274 14.841 27.4719 15.5015L28.5695 14.275C28.1616 13.9159 27.9042 13.3914 27.9047 12.8062Z" fill="#373535"/>
<path d="M29.8572 14.7614C29.6409 14.7607 29.4326 14.725 29.2382 14.6603L28.7134 16.2206C29.072 16.3411 29.4562 16.4066 29.8556 16.4072C31.5955 16.4089 33.0483 15.1743 33.3849 13.5332L31.7719 13.2038C31.5884 14.0936 30.8008 14.7621 29.8572 14.7614Z" fill="#373535"/>
<path d="M29.8619 9.2085C29.4631 9.20805 29.0791 9.27293 28.7208 9.3922L29.2409 10.9539C29.4359 10.8895 29.6442 10.8539 29.8602 10.8539C30.8061 10.8548 31.5942 11.5273 31.7734 12.4194L33.3865 12.0922C33.0547 10.4488 31.6032 9.20971 29.8619 9.2085Z" fill="#373535"/>
</svg>
