<svg width="36" height="24" viewBox="0 0 36 24" fill="none" xmlns="http://www.w3.org/2000/svg">
<rect width="36" height="24" fill="white"/>
<path d="M22 5.15776C23.2 6.35776 23.1666 6.66668 23 6.50001L24.1167 9.30879L23.7833 15.4839L19.5 19L15.6 19.29C15.6 19.29 14.4476 19.1208 13.7833 18.8088C11.4168 17.6973 10.9351 12.75 10.9351 12.75L11 10.3088L11.5 9.30879L17 5.00001C18 4.41004 21 4.55001 22 5.15776Z" fill="white"/>
<path fill-rule="evenodd" clip-rule="evenodd" d="M11.0621 10.2952H15.5062H15.6299C15.6299 10.2952 15.7038 7.19729 16.4492 6.29585C17.7101 4.7726 19.0883 4.69065 19.6348 4.65814C19.6898 4.65487 19.7364 4.6521 19.7736 4.64841C19.8137 4.64405 19.8494 4.64283 19.8858 4.6416C19.3891 4.59075 18.8502 4.56349 18.2652 4.55678C18.1939 4.55634 18.1249 4.55634 18.0545 4.55634H17.9297C17.8595 4.55634 17.7904 4.55634 17.7193 4.55678C13.1006 4.60986 11.3276 5.93022 10.9882 10.2952H11.0621ZM15.1774 15.6066C14.6563 16.2582 13.9062 16.2144 13.8957 16.2138V18.8624C12.0398 18.1132 11.2033 16.5509 10.9852 13.6703C10.9588 13.3232 10.9431 13.0181 10.9332 12.7654L15.63 12.7636L15.6269 13.0434C15.6214 13.5265 15.6106 14.4652 15.6118 14.4965C15.6154 14.6341 15.5806 15.1028 15.1774 15.6066ZM21.3728 4.9033C23.7329 5.53186 24.7551 7.10275 24.9992 10.3299C25.0752 11.3322 25.0665 11.9999 25.0665 11.9999C25.0665 11.9999 25.0753 12.6679 24.9993 13.6701C24.6671 18.063 22.8961 19.39 18.2653 19.4433C18.194 19.4437 17.7905 19.4437 17.7194 19.4433C16.9162 19.4339 16.2016 19.3853 15.5631 19.2903C15.5659 19.2903 15.5686 19.2902 15.5714 19.2902C15.5909 19.2901 15.6101 19.2899 15.63 19.2885C16.4679 19.2405 17.6344 18.5942 18.3286 17.091C18.6319 16.4336 18.7134 15.26 18.7134 15.26V12.7641H18.7136V12.7635H21.25H21.373V10.2949H21.25H18.7138C18.7138 10.2949 18.7138 10.2946 18.7136 10.2945C18.7136 10.2945 18.7125 10.2919 18.7116 10.2872L18.7109 10.284C18.7103 10.282 18.7097 10.2799 18.7091 10.2775C18.7084 10.2746 18.7075 10.2713 18.7062 10.2672C18.7061 10.2664 18.706 10.2653 18.7058 10.2642C18.7055 10.2626 18.7052 10.2609 18.7051 10.2594C18.7032 10.2522 18.7015 10.2453 18.7002 10.2358C18.6995 10.2335 18.6991 10.2307 18.6987 10.2278C18.6985 10.2259 18.6982 10.224 18.6978 10.2222C18.6961 10.2129 18.6946 10.2035 18.6931 10.1925C18.6921 10.1881 18.6917 10.1827 18.6914 10.1776C18.6913 10.1764 18.6912 10.1753 18.6911 10.1741C18.6893 10.1624 18.6881 10.1512 18.6867 10.1378C18.6865 10.1351 18.6864 10.1322 18.6863 10.1293C18.6861 10.125 18.6859 10.1206 18.6855 10.1166C18.6854 10.1138 18.6852 10.111 18.685 10.1082C18.6843 10.0968 18.6835 10.0853 18.6833 10.0725C18.6832 10.0687 18.6832 10.0646 18.6832 10.0606C18.6832 10.0566 18.6832 10.0525 18.6831 10.0486C18.6831 10.0431 18.683 10.0375 18.6829 10.0319C18.6826 10.0206 18.6824 10.0091 18.6831 9.99669C18.6831 9.9924 18.6834 9.98775 18.6837 9.98304C18.6839 9.97942 18.6841 9.97577 18.6842 9.97222C18.6847 9.95244 18.6854 9.93277 18.6876 9.91087C18.6878 9.90771 18.6881 9.90434 18.6885 9.90092C18.6889 9.8972 18.6893 9.89341 18.6896 9.88975C18.6917 9.86584 18.6945 9.8417 18.6982 9.816C18.6984 9.81357 18.6989 9.81105 18.6994 9.80855C18.6998 9.80611 18.7003 9.80368 18.7005 9.80136C18.705 9.77231 18.7098 9.74281 18.7162 9.71174C18.7162 9.71107 18.7164 9.71006 18.7166 9.70906C18.7615 9.49328 18.8579 9.22767 19.0508 8.92674C19.5698 8.11928 21.0435 8.15727 21.3261 8.17225C21.3557 8.17404 21.3723 8.17527 21.3728 8.17527V4.9033Z" fill="#659AD2"/>
</svg>
