<svg width="36" height="24" viewBox="0 0 36 24" fill="none" xmlns="http://www.w3.org/2000/svg">
<rect width="36" height="24" fill="white"/>
<path fill-rule="evenodd" clip-rule="evenodd" d="M30.3529 3.61766H5.64706C4.91609 3.61766 4.32353 4.21022 4.32353 4.94119V19.0588C4.32353 19.7898 4.91609 20.3824 5.64706 20.3824H30.3529C31.0839 20.3824 31.6765 19.7898 31.6765 19.0588V4.94119C31.6765 4.21022 31.0839 3.61766 30.3529 3.61766ZM5.64706 2.29413C4.18513 2.29413 3 3.47926 3 4.94119V19.0588C3 20.5208 4.18513 21.7059 5.64706 21.7059H30.3529C31.8149 21.7059 33 20.5208 33 19.0588V4.94119C33 3.47926 31.8149 2.29413 30.3529 2.29413H5.64706Z" fill="#D9D9D9"/>
<path fill-rule="evenodd" clip-rule="evenodd" d="M30.3529 3.61761H5.64702C4.91605 3.61761 4.32349 4.21018 4.32349 4.94114V19.0588C4.32349 19.7898 4.91605 20.3823 5.64702 20.3823H30.3529C31.0839 20.3823 31.6764 19.7898 31.6764 19.0588V4.94114C31.6764 4.21018 31.0839 3.61761 30.3529 3.61761Z" fill="white"/>
<rect x="4.32349" y="5.82355" width="27.3529" height="3.52941" fill="#999999"/>
<rect x="6.5293" y="15.5294" width="10.5882" height="1.76471" fill="#D9D9D9"/>
<rect x="23.2942" y="15.5294" width="6.17647" height="1.76471" fill="#D9D9D9"/>
</svg>
