<svg width="36" height="24" viewBox="0 0 36 24" fill="none" xmlns="http://www.w3.org/2000/svg">
<rect width="36" height="24" fill="white"/>
<g clip-path="url(#clip0_1742_24077)">
<path d="M15.388 18.4112L2.16797 18.4155V18.3861C2.16797 18.3699 2.18905 18.2648 2.21482 18.1525C2.24059 18.0403 2.28066 17.8617 2.30385 17.7557C2.32705 17.6498 2.36671 17.4697 2.39199 17.3556C2.41726 17.2414 2.45926 17.0513 2.48531 16.9331C2.51137 16.8149 2.55218 16.6282 2.57601 16.5181C2.59984 16.4081 2.63962 16.228 2.66442 16.1179C2.68921 16.0079 2.73148 15.8178 2.75836 15.6955C2.78523 15.5732 2.82608 15.3865 2.84913 15.2805C2.87219 15.1745 2.90883 15.0111 2.93055 14.9174C2.95228 14.8236 2.97997 14.6969 2.9921 14.6358C3.00422 14.5746 3.04346 14.3946 3.07929 14.2356C3.11512 14.0766 3.15468 13.8965 3.1672 13.8354C3.17971 13.7743 3.21945 13.5942 3.2555 13.4352C3.29154 13.2763 3.33114 13.0962 3.3435 13.035C3.35585 12.9739 3.39567 12.7938 3.43198 12.6348C3.4683 12.4759 3.5075 12.2991 3.51909 12.2421C3.53068 12.185 3.56242 12.0383 3.58963 11.916C3.61684 11.7937 3.66833 11.5636 3.70405 11.4046C3.73976 11.2457 3.80086 10.9689 3.83981 10.7895C3.87876 10.6102 3.9253 10.3968 3.94324 10.3153C3.96118 10.2337 3.99362 10.087 4.01533 9.98918C4.03704 9.89136 4.07646 9.71461 4.10293 9.5964C4.1294 9.4782 4.17247 9.28478 4.19864 9.16658C4.22481 9.04837 4.26514 8.86495 4.28825 8.75898C4.31137 8.653 4.35083 8.47626 4.37593 8.3662C4.40104 8.25615 4.44422 8.06273 4.4719 7.93638C4.49957 7.81002 4.54594 7.6166 4.57492 7.50655C4.60391 7.3965 4.64489 7.2631 4.66599 7.21011C5.07911 6.17279 6.30775 5.66296 7.35997 5.66296L20.588 5.65829L33.816 5.65363V5.68308C33.816 5.69928 33.7947 5.80438 33.7688 5.91663C33.7429 6.02888 33.6995 6.22077 33.6725 6.34305C33.6455 6.46532 33.606 6.64207 33.5848 6.73582C33.5636 6.82957 33.5235 7.00965 33.4956 7.13601C33.4678 7.26236 33.4249 7.45578 33.4004 7.56583C33.3759 7.67588 33.3362 7.85597 33.3122 7.96602C33.2882 8.07607 33.2483 8.25615 33.2235 8.3662C33.1987 8.47626 33.1602 8.64967 33.138 8.75157C33.1158 8.85347 33.0756 9.03689 33.0487 9.15916C33.0217 9.28144 32.9785 9.47487 32.9526 9.58899C32.9266 9.70312 32.8871 9.87987 32.8648 9.98177C32.8424 10.0837 32.8022 10.2671 32.7754 10.3894C32.7486 10.5116 32.7054 10.7051 32.6795 10.8192C32.6536 10.9333 32.6149 11.1067 32.5936 11.2046C32.5723 11.3024 32.5322 11.4858 32.5046 11.6122C32.4769 11.7385 32.4365 11.9219 32.4149 12.0197C32.3932 12.1176 32.3546 12.291 32.329 12.4051C32.3034 12.5192 32.2596 12.716 32.2317 12.8424C32.2038 12.9687 32.1639 13.1488 32.143 13.2425C32.1221 13.3363 32.083 13.513 32.0561 13.6353C32.0291 13.7576 31.9863 13.951 31.9609 14.0651C31.9355 14.1793 31.8956 14.3593 31.8723 14.4653C31.849 14.5713 31.8085 14.7547 31.7822 14.8729C31.756 14.9911 31.7132 15.1845 31.6871 15.3027C31.661 15.421 31.6218 15.5977 31.6001 15.6955C31.5784 15.7933 31.5387 15.9734 31.5119 16.0957C31.4851 16.218 31.4415 16.4107 31.415 16.5239C31.1209 17.7808 29.81 18.4068 28.608 18.4068L15.388 18.4112ZM10.6845 15.2435H11.0285L11.0383 15.22C11.0436 15.2071 11.048 15.1768 11.048 15.1526C11.048 15.1285 11.0593 15.0407 11.0732 14.9575C11.087 14.8743 11.1196 14.6828 11.1454 14.532C11.1713 14.3812 11.2101 14.1544 11.2316 14.0281C11.2531 13.9017 11.2793 13.74 11.2899 13.6687C11.3005 13.5973 11.3134 13.539 11.3186 13.539C11.3238 13.539 11.346 13.5705 11.368 13.609L11.408 13.6791L11.4967 13.7618L11.5854 13.8446L11.6945 13.8851L11.8037 13.9256L11.9338 13.9412L12.064 13.9569L12.2291 13.9475L12.3943 13.9381L12.5731 13.8952L12.752 13.8523L12.848 13.8117C12.9008 13.7894 12.9944 13.7407 13.056 13.7036L13.168 13.636L13.2724 13.5393C13.3298 13.4861 13.4108 13.4009 13.4524 13.3498C13.494 13.2988 13.528 13.2533 13.528 13.2487C13.528 13.2442 13.5484 13.2126 13.5733 13.1785C13.5983 13.1444 13.6494 13.0499 13.6869 12.9683C13.7243 12.8868 13.7829 12.7401 13.817 12.6423L13.879 12.4644L13.9111 12.3103C13.9287 12.2256 13.9514 12.0855 13.9615 11.9991L13.9798 11.8419L13.9692 11.7085L13.9586 11.5751L13.9252 11.4417L13.8918 11.3083L13.8378 11.2084L13.7838 11.1086L13.6794 11.006L13.575 10.9035L13.4515 10.8444L13.328 10.7853L13.192 10.7551L13.056 10.7249L12.92 10.7157L12.784 10.7064L12.6325 10.7226L12.481 10.7387L12.3573 10.7679L12.2337 10.7972L12.1262 10.8432C12.0672 10.8686 11.9812 10.9116 11.9352 10.9389C11.8892 10.9661 11.8418 10.9975 11.8298 11.0085C11.8178 11.0196 11.7891 11.0401 11.766 11.0541L11.724 11.0796L11.7533 10.9494C11.7695 10.8778 11.783 10.8109 11.7833 10.8007L11.784 10.7821H11.4906H11.1973L11.1459 11.0823C11.1176 11.2474 11.0729 11.5025 11.0466 11.6492C11.0203 11.7959 10.9806 12.016 10.9585 12.1383C10.9363 12.2606 10.8967 12.4774 10.8706 12.62C10.8444 12.7627 10.8011 12.9895 10.7744 13.124C10.7477 13.2585 10.7086 13.4552 10.6875 13.5612C10.6664 13.6672 10.6267 13.8673 10.5993 14.0059C10.5718 14.1444 10.5277 14.3645 10.5013 14.495C10.4748 14.6254 10.4317 14.8322 10.4056 14.9544C10.3794 15.0767 10.3541 15.1918 10.3492 15.2101L10.3405 15.2435H10.6845ZM12.1656 13.5298L12.032 13.5372L11.9447 13.523L11.8573 13.5087L11.7687 13.4712L11.68 13.4337L11.618 13.3789L11.5561 13.3241L11.5203 13.2499C11.5006 13.2092 11.4754 13.1399 11.4642 13.0961L11.4438 13.0163L11.4519 12.8886L11.4601 12.7608L11.5013 12.5607C11.524 12.4507 11.5647 12.2439 11.5918 12.1013C11.6189 11.9586 11.6599 11.7496 11.6829 11.6368L11.7248 11.4316L11.8165 11.3609C11.867 11.322 11.9469 11.2699 11.9941 11.2451L12.08 11.2L12.192 11.1679L12.304 11.1358L12.448 11.1279L12.592 11.1201L12.7092 11.1432L12.8265 11.1664L12.9092 11.2017L12.992 11.237L13.0614 11.3016L13.1307 11.3662L13.1682 11.4347C13.1888 11.4723 13.2177 11.546 13.2324 11.5984L13.2593 11.6937L13.2511 11.9753L13.2428 12.2569L13.2017 12.4233C13.1791 12.5149 13.1361 12.655 13.1061 12.7346L13.0516 12.8794L12.9849 12.9966C12.9481 13.0611 12.8915 13.1482 12.859 13.1902C12.8265 13.2322 12.7748 13.2867 12.744 13.3112C12.7132 13.3357 12.6616 13.374 12.6293 13.3963L12.5707 13.4368L12.4349 13.4796L12.2991 13.5224L12.1656 13.5298ZM15.488 13.9373L15.664 13.9391L15.84 13.9243C15.9368 13.9161 16.0952 13.8991 16.192 13.8864C16.2888 13.8738 16.456 13.8455 16.5636 13.8236L16.7592 13.7837L16.7689 13.7169C16.7743 13.6802 16.7962 13.5708 16.8177 13.4739L16.8568 13.2977L16.8482 13.2897L16.8396 13.2817L16.7798 13.3084C16.7469 13.3232 16.6444 13.3583 16.5521 13.3864L16.3843 13.4377L16.2081 13.4693L16.032 13.5009L15.752 13.5014L15.472 13.5019L15.376 13.4735C15.3232 13.4579 15.2455 13.4293 15.2034 13.41L15.1268 13.3749L15.0636 13.322L15.0004 13.2691L14.9511 13.1893L14.9018 13.1094L14.8709 13.0093L14.84 12.9091L14.8397 12.7238L14.8395 12.5385L14.867 12.3732L14.8944 12.2079L15.1352 12.1974L15.376 12.187L16.266 12.1923L17.156 12.1976L17.1829 12.092C17.1977 12.0339 17.2203 11.9139 17.2331 11.8252L17.2564 11.664L17.2569 11.5284L17.2574 11.3928L17.2321 11.2916L17.2067 11.1904L17.1648 11.1234C17.1418 11.0865 17.1012 11.0331 17.0746 11.0046C17.048 10.9762 17.0005 10.9361 16.9691 10.9156C16.9377 10.895 16.876 10.8604 16.832 10.8388L16.752 10.7994L16.6122 10.7682L16.4724 10.737L16.3002 10.7217L16.128 10.7064L15.968 10.7161L15.808 10.7257L15.616 10.7599L15.424 10.7941L15.304 10.8385C15.238 10.8629 15.1372 10.9075 15.08 10.9376C15.0228 10.9676 14.9436 11.0165 14.904 11.0462C14.8644 11.0759 14.7958 11.1337 14.7516 11.1746C14.7074 11.2155 14.642 11.289 14.6063 11.3379C14.5706 11.3869 14.5159 11.4736 14.4847 11.5306C14.4535 11.5877 14.4128 11.6677 14.3943 11.7085C14.3758 11.7492 14.3422 11.8326 14.3197 11.8938C14.2971 11.9549 14.2616 12.0716 14.2408 12.1531C14.22 12.2347 14.1915 12.3688 14.1775 12.4513L14.152 12.6013L14.1522 12.8219L14.1524 13.0424L14.1768 13.1388C14.1901 13.1918 14.2157 13.2718 14.2336 13.3166C14.2515 13.3615 14.2845 13.4282 14.3071 13.4649C14.3296 13.5015 14.3777 13.5606 14.414 13.5961C14.4503 13.6316 14.516 13.6855 14.56 13.7158C14.604 13.7462 14.6823 13.7889 14.734 13.8107L14.8281 13.8503L14.9593 13.8797C15.0314 13.8959 15.1403 13.915 15.2012 13.9222C15.2621 13.9295 15.3912 13.9362 15.488 13.9373ZM15.7893 11.8493C15.3464 11.8493 14.984 11.8464 14.984 11.8428C14.984 11.8392 15.0029 11.7875 15.026 11.7279C15.0491 11.6683 15.0896 11.5796 15.1161 11.5308L15.1643 11.4421L15.2701 11.3445L15.376 11.247L15.48 11.201C15.5372 11.1756 15.6128 11.148 15.648 11.1397C15.6832 11.1313 15.784 11.1202 15.872 11.1149L16.032 11.1055L16.1548 11.1201L16.2777 11.1347L16.367 11.1726L16.4563 11.2105L16.5053 11.2594C16.5322 11.2863 16.5643 11.3259 16.5766 11.3474L16.599 11.3866L16.6137 11.4734L16.6285 11.5603L16.6116 11.7048L16.5947 11.8493H15.7893ZM20.5761 13.9373L20.7522 13.9392L20.9521 13.9172C21.062 13.9051 21.2084 13.8851 21.2773 13.8728C21.3462 13.8604 21.4578 13.8358 21.5253 13.8182C21.5928 13.8005 21.6538 13.7814 21.6609 13.7757C21.6681 13.7701 21.6871 13.7028 21.7033 13.6263C21.7195 13.5497 21.7398 13.4471 21.7486 13.3982C21.7573 13.3493 21.7618 13.3066 21.7586 13.3034C21.7554 13.3002 21.7436 13.3043 21.7324 13.3126C21.7211 13.3208 21.6426 13.3515 21.5579 13.3806L21.4038 13.4336L21.1844 13.473L20.965 13.5124L20.7785 13.5065L20.592 13.5006L20.486 13.4665L20.3801 13.4325L20.2982 13.3662L20.2163 13.2998L20.162 13.2082L20.1077 13.1166L20.0818 12.994L20.056 12.8714L20.0561 12.7124L20.0563 12.5533L20.0877 12.3606L20.1192 12.168L20.1524 12.0642C20.1707 12.0071 20.1914 11.9405 20.1984 11.916C20.2054 11.8915 20.2348 11.8215 20.2636 11.7604C20.2925 11.6992 20.344 11.6047 20.378 11.5504L20.44 11.4516L20.516 11.3785L20.5921 11.3055L20.6726 11.2593L20.7532 11.213L20.8566 11.1835C20.9135 11.1672 21.0141 11.1461 21.0801 11.1366L21.2001 11.1193L21.3761 11.1275L21.5521 11.1357L21.7601 11.1742L21.9681 11.2128L22.0527 11.242C22.0992 11.2581 22.1393 11.2713 22.1418 11.2713C22.1443 11.2713 22.1554 11.2162 22.1666 11.149C22.1778 11.0817 22.1976 10.9711 22.2107 10.9031C22.2238 10.8351 22.2314 10.7766 22.2275 10.773C22.2237 10.7694 22.1612 10.7602 22.0886 10.7525C22.016 10.7449 21.8188 10.7313 21.6504 10.7223L21.3441 10.706L21.1281 10.7213L20.9121 10.7367L20.7521 10.7679L20.5921 10.799L20.489 10.8372C20.4324 10.8582 20.3494 10.8961 20.3046 10.9214C20.2598 10.9467 20.2028 10.9807 20.1779 10.9971C20.153 11.0134 20.0775 11.077 20.0101 11.1384L19.8875 11.2501L19.8191 11.343C19.7815 11.394 19.7164 11.5005 19.6745 11.5796L19.5983 11.7233L19.5398 11.8789C19.5077 11.9645 19.4628 12.1046 19.4401 12.1902L19.3989 12.3458L19.3839 12.4866L19.3689 12.6274L19.3691 12.8127L19.3692 12.998L19.3843 13.1058L19.3994 13.2135L19.4474 13.3244L19.4953 13.4353L19.5506 13.5154L19.606 13.5956L19.694 13.6758L19.782 13.7561L19.8751 13.8017L19.9682 13.8472L20.0906 13.8787C20.1578 13.896 20.255 13.9159 20.3066 13.9229C20.3581 13.9298 20.4792 13.9364 20.5761 13.9373ZM23.208 13.9319L23.424 13.9261L23.56 13.8939L23.696 13.8616L23.784 13.8231C23.8324 13.8019 23.9116 13.7601 23.96 13.7301C24.0084 13.7002 24.0833 13.6433 24.1265 13.6036C24.1696 13.564 24.2336 13.4964 24.2687 13.4534C24.3038 13.4103 24.3346 13.3771 24.3372 13.3795C24.3397 13.3819 24.3317 13.4504 24.3192 13.5318C24.3068 13.6132 24.2965 13.7215 24.2963 13.7724L24.296 13.865H24.5896H24.8833L24.8923 13.6538L24.9012 13.4426L24.9431 13.1684C24.9662 13.0176 25.0034 12.7942 25.0258 12.6719C25.0483 12.5496 25.0873 12.3429 25.1126 12.2124C25.1378 12.082 25.1778 11.8786 25.2014 11.7604L25.2444 11.5455L25.2458 11.3598L25.2473 11.1742L25.202 11.0884L25.1566 11.0026L25.0952 10.9479L25.0338 10.8933L24.9329 10.8459L24.832 10.7986L24.6816 10.7676L24.5313 10.7366L24.3243 10.722L24.1173 10.7074L23.8506 10.7227C23.704 10.7311 23.4976 10.7477 23.392 10.7596L23.2 10.7812L23.0691 10.7817L22.9383 10.7821L22.9192 10.8674C22.9088 10.9142 22.8797 11.0256 22.8546 11.1148C22.8295 11.2041 22.8113 11.2792 22.8141 11.2819C22.817 11.2845 22.887 11.2698 22.9696 11.2492C23.0523 11.2286 23.228 11.1947 23.36 11.1738L23.6 11.136L23.816 11.1277L24.032 11.1195L24.1711 11.1421L24.3103 11.1647L24.4031 11.2071L24.496 11.2496L24.548 11.3214L24.6 11.3932L24.5993 11.5064L24.5985 11.6196L24.571 11.7438L24.5434 11.868L23.9677 11.8699L23.392 11.8718L23.2036 11.9197C23.0999 11.946 22.9852 11.981 22.9486 11.9974C22.9119 12.0137 22.8753 12.0272 22.8672 12.0272C22.859 12.0272 22.7974 12.0588 22.7302 12.0975L22.608 12.1679L22.5118 12.2569C22.4588 12.3058 22.3912 12.3792 22.3615 12.4199C22.3318 12.4607 22.2835 12.5458 22.2542 12.6091L22.201 12.7243L22.1765 12.8537L22.1521 12.9832V13.1189V13.2547L22.1754 13.3678L22.1988 13.4809L22.2421 13.5546C22.2659 13.5952 22.3097 13.6546 22.3393 13.6866L22.3931 13.7449L22.4888 13.7988L22.5845 13.8526L22.6941 13.8813C22.7543 13.8971 22.846 13.9163 22.8979 13.9238L22.9921 13.9376L23.208 13.9319ZM23.408 13.5174L23.28 13.5236L23.1952 13.5036C23.1486 13.4926 23.0778 13.4681 23.038 13.4491L22.9655 13.4146L22.926 13.371C22.9042 13.3471 22.871 13.3001 22.8522 13.2665L22.8179 13.2055L22.8111 13.063L22.8044 12.9205L22.8315 12.8341C22.8465 12.7866 22.8815 12.7041 22.9093 12.6508L22.96 12.5539L23.057 12.4647L23.154 12.3755L23.257 12.3295L23.36 12.2836L23.488 12.2554L23.616 12.2273H24.016H24.416L24.4413 12.2369L24.4666 12.2466L24.4453 12.3629C24.4336 12.4269 24.4056 12.5426 24.3832 12.62C24.3608 12.6975 24.3212 12.8113 24.2952 12.873C24.2692 12.9347 24.248 12.9893 24.248 12.9942C24.248 12.9992 24.2217 13.0442 24.1895 13.0941L24.1311 13.185L24.0352 13.2731C23.9824 13.3215 23.9334 13.3611 23.9263 13.3611C23.9192 13.3611 23.8869 13.3778 23.8544 13.3982L23.7955 13.4352L23.6657 13.4732L23.536 13.5112L23.408 13.5174ZM28.616 13.9372L28.768 13.9389L28.912 13.9173C28.9912 13.9054 29.092 13.8862 29.136 13.8747C29.18 13.8631 29.2592 13.8332 29.312 13.8081L29.408 13.7626L29.4906 13.6952L29.5731 13.6279L29.6601 13.5204C29.708 13.4613 29.7513 13.403 29.7564 13.3908L29.7657 13.3685L29.7576 13.4426C29.7532 13.4834 29.7432 13.5501 29.7355 13.5908C29.7277 13.6316 29.7166 13.71 29.7108 13.765L29.7002 13.865H30.0141H30.328V13.765V13.665L30.3758 13.287C30.4021 13.0791 30.441 12.8023 30.4622 12.6719C30.4834 12.5415 30.5162 12.3547 30.535 12.2569C30.5539 12.1591 30.5872 11.9823 30.6091 11.8641C30.6311 11.7459 30.6706 11.5392 30.6971 11.4046C30.7236 11.2701 30.766 11.0567 30.7913 10.9304C30.8166 10.804 30.8559 10.6072 30.8787 10.4931C30.9015 10.379 30.9423 10.1789 30.9694 10.0485C30.9965 9.91803 31.036 9.73462 31.0573 9.64087C31.0786 9.54712 31.096 9.46542 31.0959 9.4593V9.44819H30.7535H30.4111L30.401 9.54082C30.3954 9.59177 30.3692 9.76018 30.3427 9.91507C30.3162 10.07 30.2731 10.3167 30.2468 10.4635C30.2205 10.6102 30.1952 10.7525 30.1905 10.7797L30.182 10.8291L30.155 10.8184C30.1401 10.8126 30.0595 10.7919 29.9759 10.7724L29.8239 10.7371L29.6159 10.7221L29.4079 10.7071L29.2319 10.7223L29.0559 10.7374L28.8959 10.7749L28.7359 10.8124L28.5839 10.8811L28.4319 10.9497L28.3199 11.0265L28.2079 11.1034L28.1112 11.1994C28.058 11.2523 27.9812 11.3397 27.9404 11.3936L27.8664 11.4918L27.7794 11.6594C27.7316 11.7516 27.6734 11.8738 27.65 11.9308C27.6267 11.9879 27.5856 12.1144 27.5587 12.2119L27.5097 12.3893L27.4856 12.6195L27.4614 12.8498L27.4796 13.035L27.4977 13.2203L27.5191 13.287C27.5309 13.3237 27.5557 13.389 27.5743 13.4322L27.6081 13.5108L27.6697 13.588L27.7313 13.6653L27.8016 13.7186L27.8719 13.772L27.9679 13.8161C28.0207 13.8404 28.1093 13.8718 28.1648 13.8859C28.2202 13.9 28.3102 13.9169 28.3648 13.9234C28.4193 13.93 28.5324 13.9362 28.616 13.9372ZM28.8888 13.5167L28.768 13.5226L28.6864 13.509C28.6416 13.5015 28.5698 13.4815 28.527 13.4645L28.449 13.4335L28.3834 13.3837L28.3179 13.334L28.2691 13.2475L28.2204 13.161L28.1982 13.0647L28.176 12.9683L28.1779 12.7757L28.1797 12.583L28.2055 12.4125L28.2313 12.2421L28.2714 12.1235C28.2935 12.0583 28.3116 11.9968 28.3117 11.9868C28.3119 11.9768 28.3336 11.9234 28.3601 11.8682C28.3866 11.813 28.4308 11.7278 28.4584 11.6788C28.486 11.6299 28.5375 11.5537 28.573 11.5094C28.6084 11.4651 28.6715 11.3984 28.7133 11.3612C28.755 11.324 28.8213 11.2751 28.8607 11.2527L28.9324 11.2118L29.0582 11.1715L29.184 11.1312L29.448 11.131H29.712L29.864 11.1701C29.9476 11.1916 30.0363 11.2165 30.0612 11.2255L30.1065 11.2418L30.0976 11.2824C30.0928 11.3048 30.0738 11.4032 30.0554 11.501C30.037 11.5988 30.0008 11.7856 29.9749 11.916C29.949 12.0464 29.9092 12.2432 29.8865 12.3532C29.8638 12.4633 29.8309 12.6034 29.8134 12.6645C29.7959 12.7256 29.7712 12.8103 29.7585 12.8527C29.7458 12.895 29.7156 12.9684 29.6914 13.0157C29.6671 13.063 29.6248 13.1317 29.5972 13.1684C29.5696 13.2051 29.5229 13.2559 29.4935 13.2814C29.4641 13.3068 29.4004 13.352 29.352 13.3818L29.264 13.4359L29.1368 13.4733L29.0096 13.5107L28.8888 13.5167ZM5.34073 13.865H5.72949L5.75738 13.7057C5.77272 13.6181 5.80268 13.4497 5.82396 13.3315C5.84524 13.2133 5.88484 12.9932 5.91197 12.8424C5.93909 12.6915 5.97975 12.4681 6.00233 12.3458C6.0249 12.2235 6.06077 12.0339 6.08203 11.9243C6.1033 11.8147 6.12473 11.7214 6.12966 11.7168L6.13863 11.7085H7.18396H8.2293L8.2409 11.7192L8.25251 11.73L8.23438 11.8156C8.22441 11.8627 8.19492 12.0079 8.16885 12.1383C8.14278 12.2688 8.09895 12.4889 8.07145 12.6274C8.04395 12.766 8.00418 12.9628 7.98309 13.0647C7.96198 13.1666 7.91929 13.38 7.8882 13.539C7.85711 13.6979 7.83174 13.8363 7.83182 13.8465L7.83198 13.865H8.22234H8.6127L8.62997 13.7724C8.63947 13.7215 8.65475 13.6298 8.66394 13.5686C8.67312 13.5075 8.69525 13.3774 8.71312 13.2796C8.731 13.1818 8.7667 12.9883 8.79247 12.8498C8.81824 12.7112 8.86138 12.4744 8.88833 12.3236C8.91527 12.1728 8.95526 11.9527 8.97717 11.8345C8.99908 11.7163 9.03813 11.5162 9.06395 11.3898C9.08976 11.2635 9.13275 11.05 9.15949 10.9155C9.18623 10.781 9.22628 10.5776 9.2485 10.4635C9.27072 10.3493 9.31123 10.1426 9.33853 10.004C9.36583 9.86542 9.4003 9.70368 9.41513 9.64457L9.4421 9.53712H9.04686H8.65162L8.64087 9.60752C8.63495 9.64624 8.61586 9.75463 8.59843 9.84837C8.58101 9.94212 8.54931 10.1089 8.528 10.2189C8.50668 10.329 8.46773 10.5391 8.44144 10.6858C8.41514 10.8325 8.38164 11.0268 8.36698 11.1174L8.34032 11.2823L7.76012 11.2932L7.17992 11.3041L6.69395 11.2934C6.42667 11.2875 6.2065 11.2815 6.20469 11.2801C6.20288 11.2787 6.21198 11.2211 6.22492 11.1521C6.23785 11.0831 6.26233 10.9633 6.27931 10.8859C6.29629 10.8084 6.32847 10.655 6.35083 10.545C6.37319 10.4349 6.39851 10.2982 6.40711 10.2411C6.4157 10.1841 6.43372 10.089 6.44714 10.0299C6.46056 9.97084 6.48603 9.84634 6.50374 9.75329C6.52145 9.66024 6.54032 9.57353 6.54567 9.56061L6.5554 9.53712H6.16335H5.7713L5.74619 9.66681C5.73238 9.73814 5.71397 9.83985 5.70527 9.89284C5.69658 9.94582 5.66737 10.1159 5.64038 10.2708C5.61338 10.4257 5.57353 10.6558 5.55182 10.7821C5.53011 10.9085 5.49057 11.1386 5.46396 11.2935C5.43735 11.4484 5.39343 11.6885 5.36638 11.8271C5.33932 11.9656 5.30015 12.1624 5.27933 12.2643C5.25851 12.3662 5.21884 12.5596 5.19116 12.6941C5.16349 12.8286 5.12312 13.0187 5.10145 13.1166C5.07978 13.2144 5.05582 13.3278 5.04821 13.3685C5.0406 13.4093 5.01584 13.5268 4.99318 13.6298C4.97052 13.7327 4.95198 13.8277 4.95198 13.841V13.865H5.34073ZM9.64439 13.865H9.98854L9.99826 13.8416C10.0036 13.8287 10.008 13.7949 10.008 13.7664C10.008 13.738 10.0296 13.5901 10.0561 13.4379C10.0825 13.2856 10.1262 13.0376 10.1532 12.8868C10.1801 12.736 10.22 12.5159 10.2417 12.3977C10.2634 12.2795 10.302 12.0827 10.3275 11.9605C10.3529 11.8382 10.392 11.6481 10.4144 11.538C10.4367 11.428 10.4806 11.2186 10.5119 11.0728C10.5432 10.9269 10.5728 10.8017 10.5776 10.7946L10.5862 10.7816L10.2382 10.7856L9.89019 10.7895L9.8612 10.9822C9.84526 11.0882 9.81041 11.2983 9.78375 11.4491C9.75709 11.5999 9.71677 11.83 9.69414 11.9605C9.67152 12.0909 9.63206 12.301 9.60646 12.4273C9.58086 12.5537 9.54164 12.7471 9.51929 12.8572C9.49694 12.9672 9.45684 13.1606 9.43018 13.287C9.40351 13.4134 9.36773 13.5801 9.35067 13.6575C9.3336 13.735 9.31527 13.8134 9.30994 13.8317L9.30024 13.865H9.64439ZM17.6936 13.865H18.0352L18.0454 13.7311C18.0511 13.6575 18.0704 13.5091 18.0884 13.4014C18.1064 13.2936 18.1432 13.0788 18.1702 12.9239C18.1972 12.769 18.2475 12.5112 18.2818 12.351C18.3162 12.1908 18.355 12.0315 18.3681 11.9971C18.3812 11.9627 18.392 11.9254 18.392 11.9142C18.392 11.903 18.4177 11.8422 18.449 11.779C18.4804 11.7157 18.5389 11.619 18.579 11.5639L18.652 11.4637L18.7496 11.38L18.8472 11.2962L18.9676 11.243L19.088 11.1897L19.272 11.1906L19.456 11.1915L19.5464 11.2166C19.5962 11.2303 19.6412 11.2416 19.6464 11.2416C19.6517 11.2416 19.656 11.2258 19.656 11.2066C19.656 11.1873 19.674 11.0897 19.696 10.9896C19.718 10.8896 19.736 10.8035 19.736 10.7983C19.736 10.7932 19.6838 10.7742 19.62 10.7563C19.5562 10.7383 19.468 10.7195 19.424 10.7144L19.344 10.7053L19.24 10.7223C19.1828 10.7317 19.0977 10.7524 19.051 10.7683C19.0042 10.7842 18.927 10.8203 18.8794 10.8485C18.8318 10.8767 18.7578 10.9317 18.7149 10.9707C18.672 11.0096 18.5998 11.0882 18.5546 11.1453C18.5093 11.2023 18.4619 11.2623 18.4493 11.2787L18.4264 11.3083L18.4403 11.249C18.448 11.2164 18.4693 11.1097 18.4877 11.0119C18.5061 10.914 18.5249 10.8223 18.5296 10.8081L18.5381 10.7821H18.233H17.928V10.8179C17.928 10.8375 17.91 10.9559 17.888 11.0809C17.8659 11.206 17.8297 11.415 17.8073 11.5454C17.785 11.6759 17.7453 11.9026 17.7192 12.0494C17.693 12.1961 17.6534 12.4062 17.631 12.5163C17.6087 12.6263 17.5689 12.8197 17.5428 12.9461C17.5166 13.0724 17.4732 13.2792 17.4462 13.4056C17.4193 13.5319 17.3871 13.6811 17.3746 13.7372C17.3622 13.7932 17.352 13.8449 17.352 13.852V13.865L17.6936 13.865ZM25.8027 13.865H26.152V13.766V13.667L26.1922 13.4214C26.2144 13.2864 26.2509 13.0725 26.2734 12.9461C26.2959 12.8197 26.3239 12.6597 26.3357 12.5904C26.3475 12.5211 26.3787 12.371 26.4051 12.2569C26.4314 12.1428 26.4644 12.0194 26.4783 11.9827C26.4921 11.946 26.5036 11.9075 26.5037 11.8972C26.5039 11.8868 26.5336 11.8202 26.5699 11.7492L26.6358 11.62L26.7228 11.5129L26.8098 11.4059L26.905 11.3396C26.9573 11.3031 27.0415 11.2548 27.0921 11.2321L27.184 11.1909L27.384 11.1921L27.584 11.1934L27.6627 11.2168L27.7414 11.2402L27.7547 11.2326L27.768 11.225L27.7686 11.1778C27.769 11.1517 27.7861 11.055 27.8067 10.9627L27.8441 10.7949L27.802 10.7796C27.7789 10.7712 27.724 10.7539 27.68 10.741L27.6 10.7177L27.456 10.718L27.312 10.7184L27.1946 10.7566L27.0773 10.7949L26.9892 10.8441L26.901 10.8933L26.7865 11.0045L26.6719 11.1156L26.6104 11.2019C26.5765 11.2493 26.5467 11.286 26.5441 11.2834C26.5416 11.2808 26.56 11.182 26.585 11.0638C26.6101 10.9456 26.6309 10.8338 26.6313 10.8155L26.632 10.7821H26.336H26.04V10.7916C26.04 10.7968 26.0252 10.8918 26.0072 11.0028C25.9891 11.1138 25.9529 11.328 25.9267 11.4788C25.9005 11.6296 25.8575 11.873 25.8311 12.0198C25.8047 12.1665 25.765 12.3766 25.7428 12.4866C25.7205 12.5967 25.6811 12.7901 25.6551 12.9165C25.6291 13.0428 25.5863 13.2462 25.5601 13.3685C25.5339 13.4908 25.4992 13.6525 25.4829 13.728L25.4534 13.8651L25.8027 13.865ZM10.3211 10.2482L10.4183 10.2486L10.4955 10.2242L10.5727 10.1998L10.6411 10.1356L10.7094 10.0714L10.7454 9.98581L10.7814 9.90025L10.7827 9.77426L10.784 9.64828L10.752 9.59909L10.72 9.54989L10.6643 9.51794L10.6085 9.48598H10.4883L10.368 9.48598L10.2861 9.51995L10.2042 9.55391L10.1566 9.60109L10.1091 9.64828L10.0718 9.7298L10.0344 9.81132L10.0274 9.9383L10.0203 10.0653L10.0551 10.1284L10.0898 10.1915L10.1569 10.2197L10.224 10.2479L10.3211 10.2482Z" fill="#B3131B"/>
<path d="M15.388 18.4112L2.16797 18.4155V18.3861C2.16797 18.3699 2.18905 18.2648 2.21482 18.1525C2.24059 18.0403 2.28066 17.8617 2.30385 17.7557C2.32705 17.6498 2.36671 17.4697 2.39199 17.3556C2.41726 17.2414 2.45926 17.0513 2.48531 16.9331C2.51137 16.8149 2.55218 16.6282 2.57601 16.5181C2.59984 16.4081 2.63962 16.228 2.66442 16.1179C2.68921 16.0079 2.73148 15.8178 2.75836 15.6955C2.78523 15.5732 2.82608 15.3865 2.84913 15.2805C2.87219 15.1745 2.90883 15.0111 2.93055 14.9174C2.95228 14.8236 2.97997 14.6969 2.9921 14.6358C3.00422 14.5746 3.04346 14.3946 3.07929 14.2356C3.11512 14.0766 3.15468 13.8965 3.1672 13.8354C3.17971 13.7743 3.21945 13.5942 3.2555 13.4352C3.29154 13.2763 3.33114 13.0962 3.3435 13.035C3.35585 12.9739 3.39567 12.7938 3.43198 12.6348C3.4683 12.4759 3.5075 12.2991 3.51909 12.2421C3.53068 12.185 3.56242 12.0383 3.58963 11.916C3.61684 11.7937 3.66833 11.5636 3.70405 11.4046C3.73976 11.2457 3.80086 10.9689 3.83981 10.7895C3.87876 10.6102 3.9253 10.3968 3.94324 10.3153C3.96118 10.2337 3.99362 10.087 4.01533 9.98918C4.03704 9.89136 4.07646 9.71461 4.10293 9.5964C4.1294 9.4782 4.17247 9.28478 4.19864 9.16658C4.22481 9.04837 4.26514 8.86495 4.28825 8.75898C4.31137 8.653 4.35083 8.47626 4.37593 8.3662C4.40104 8.25615 4.44422 8.06273 4.4719 7.93638C4.49957 7.81002 4.54594 7.6166 4.57492 7.50655C4.60391 7.3965 4.64489 7.2631 4.66599 7.21011C5.07911 6.17279 6.30775 5.66296 7.35997 5.66296L20.588 5.65829L33.816 5.65363V5.68308C33.816 5.69928 33.7947 5.80438 33.7688 5.91663C33.7429 6.02888 33.6995 6.22077 33.6725 6.34305C33.6455 6.46532 33.606 6.64207 33.5848 6.73582C33.5636 6.82957 33.5235 7.00965 33.4956 7.13601C33.4678 7.26236 33.4249 7.45578 33.4004 7.56583C33.3759 7.67588 33.3362 7.85597 33.3122 7.96602C33.2882 8.07607 33.2483 8.25615 33.2235 8.3662C33.1987 8.47626 33.1602 8.64967 33.138 8.75157C33.1158 8.85347 33.0756 9.03689 33.0487 9.15916C33.0217 9.28144 32.9785 9.47487 32.9526 9.58899C32.9266 9.70312 32.8871 9.87987 32.8648 9.98177C32.8424 10.0837 32.8022 10.2671 32.7754 10.3894C32.7486 10.5116 32.7054 10.7051 32.6795 10.8192C32.6536 10.9333 32.6149 11.1067 32.5936 11.2046C32.5723 11.3024 32.5322 11.4858 32.5046 11.6122C32.4769 11.7385 32.4365 11.9219 32.4149 12.0197C32.3932 12.1176 32.3546 12.291 32.329 12.4051C32.3034 12.5192 32.2596 12.716 32.2317 12.8424C32.2038 12.9687 32.1639 13.1488 32.143 13.2425C32.1221 13.3363 32.083 13.513 32.0561 13.6353C32.0291 13.7576 31.9863 13.951 31.9609 14.0651C31.9355 14.1793 31.8956 14.3593 31.8723 14.4653C31.849 14.5713 31.8085 14.7547 31.7822 14.8729C31.756 14.9911 31.7132 15.1845 31.6871 15.3027C31.661 15.421 31.6218 15.5977 31.6001 15.6955C31.5784 15.7933 31.5387 15.9734 31.5119 16.0957C31.4851 16.218 31.4415 16.4107 31.415 16.5239C31.1209 17.7808 29.81 18.4068 28.608 18.4068L15.388 18.4112ZM10.6845 15.2435H11.0285L11.0383 15.22C11.0436 15.2071 11.048 15.1768 11.048 15.1526C11.048 15.1285 11.0593 15.0407 11.0732 14.9575C11.087 14.8743 11.1196 14.6828 11.1454 14.532C11.1713 14.3812 11.2101 14.1544 11.2316 14.0281C11.2531 13.9017 11.2793 13.74 11.2899 13.6687C11.3005 13.5973 11.3134 13.539 11.3186 13.539C11.3238 13.539 11.346 13.5705 11.368 13.609L11.408 13.6791L11.4967 13.7618L11.5854 13.8446L11.6945 13.8851L11.8037 13.9256L11.9338 13.9412L12.064 13.9569L12.2291 13.9475L12.3943 13.9381L12.5731 13.8952L12.752 13.8523L12.848 13.8117C12.9008 13.7894 12.9944 13.7407 13.056 13.7036L13.168 13.636L13.2724 13.5393C13.3298 13.4861 13.4108 13.4009 13.4524 13.3498C13.494 13.2988 13.528 13.2533 13.528 13.2487C13.528 13.2442 13.5484 13.2126 13.5733 13.1785C13.5983 13.1444 13.6494 13.0499 13.6869 12.9683C13.7243 12.8868 13.7829 12.7401 13.817 12.6423L13.879 12.4644L13.9111 12.3103C13.9287 12.2256 13.9514 12.0855 13.9615 11.9991L13.9798 11.8419L13.9692 11.7085L13.9586 11.5751L13.9252 11.4417L13.8918 11.3083L13.8378 11.2084L13.7838 11.1086L13.6794 11.006L13.575 10.9035L13.4515 10.8444L13.328 10.7853L13.192 10.7551L13.056 10.7249L12.92 10.7157L12.784 10.7064L12.6325 10.7226L12.481 10.7387L12.3573 10.7679L12.2337 10.7972L12.1262 10.8432C12.0672 10.8686 11.9812 10.9116 11.9352 10.9389C11.8892 10.9661 11.8418 10.9975 11.8298 11.0085C11.8178 11.0196 11.7891 11.0401 11.766 11.0541L11.724 11.0796L11.7533 10.9494C11.7695 10.8778 11.783 10.8109 11.7833 10.8007L11.784 10.7821H11.4906H11.1973L11.1459 11.0823C11.1176 11.2474 11.0729 11.5025 11.0466 11.6492C11.0203 11.7959 10.9806 12.016 10.9585 12.1383C10.9363 12.2606 10.8967 12.4774 10.8706 12.62C10.8444 12.7627 10.8011 12.9895 10.7744 13.124C10.7477 13.2585 10.7086 13.4552 10.6875 13.5612C10.6664 13.6672 10.6267 13.8673 10.5993 14.0059C10.5718 14.1444 10.5277 14.3645 10.5013 14.495C10.4748 14.6254 10.4317 14.8322 10.4056 14.9544C10.3794 15.0767 10.3541 15.1918 10.3492 15.2101L10.3405 15.2435H10.6845ZM12.1656 13.5298L12.032 13.5372L11.9447 13.523L11.8573 13.5087L11.7687 13.4712L11.68 13.4337L11.618 13.3789L11.5561 13.3241L11.5203 13.2499C11.5006 13.2092 11.4754 13.1399 11.4642 13.0961L11.4438 13.0163L11.4519 12.8886L11.4601 12.7608L11.5013 12.5607C11.524 12.4507 11.5647 12.2439 11.5918 12.1013C11.6189 11.9586 11.6599 11.7496 11.6829 11.6368L11.7248 11.4316L11.8165 11.3609C11.867 11.322 11.9469 11.2699 11.9941 11.2451L12.08 11.2L12.192 11.1679L12.304 11.1358L12.448 11.1279L12.592 11.1201L12.7092 11.1432L12.8265 11.1664L12.9092 11.2017L12.992 11.237L13.0614 11.3016L13.1307 11.3662L13.1682 11.4347C13.1888 11.4723 13.2177 11.546 13.2324 11.5984L13.2593 11.6937L13.2511 11.9753L13.2428 12.2569L13.2017 12.4233C13.1791 12.5149 13.1361 12.655 13.1061 12.7346L13.0516 12.8794L12.9849 12.9966C12.9481 13.0611 12.8915 13.1482 12.859 13.1902C12.8265 13.2322 12.7748 13.2867 12.744 13.3112C12.7132 13.3357 12.6616 13.374 12.6293 13.3963L12.5707 13.4368L12.4349 13.4796L12.2991 13.5224L12.1656 13.5298ZM15.488 13.9373L15.664 13.9391L15.84 13.9243C15.9368 13.9161 16.0952 13.8991 16.192 13.8864C16.2888 13.8738 16.456 13.8455 16.5636 13.8236L16.7592 13.7837L16.7689 13.7169C16.7743 13.6802 16.7962 13.5708 16.8177 13.4739L16.8568 13.2977L16.8482 13.2897L16.8396 13.2817L16.7798 13.3084C16.7469 13.3232 16.6444 13.3583 16.5521 13.3864L16.3843 13.4377L16.2081 13.4693L16.032 13.5009L15.752 13.5014L15.472 13.5019L15.376 13.4735C15.3232 13.4579 15.2455 13.4293 15.2034 13.41L15.1268 13.3749L15.0636 13.322L15.0004 13.2691L14.9511 13.1893L14.9018 13.1094L14.8709 13.0093L14.84 12.9091L14.8397 12.7238L14.8395 12.5385L14.867 12.3732L14.8944 12.2079L15.1352 12.1974L15.376 12.187L16.266 12.1923L17.156 12.1976L17.1829 12.092C17.1977 12.0339 17.2203 11.9139 17.2331 11.8252L17.2564 11.664L17.2569 11.5284L17.2574 11.3928L17.2321 11.2916L17.2067 11.1904L17.1648 11.1234C17.1418 11.0865 17.1012 11.0331 17.0746 11.0046C17.048 10.9762 17.0005 10.9361 16.9691 10.9156C16.9377 10.895 16.876 10.8604 16.832 10.8388L16.752 10.7994L16.6122 10.7682L16.4724 10.737L16.3002 10.7217L16.128 10.7064L15.968 10.7161L15.808 10.7257L15.616 10.7599L15.424 10.7941L15.304 10.8385C15.238 10.8629 15.1372 10.9075 15.08 10.9376C15.0228 10.9676 14.9436 11.0165 14.904 11.0462C14.8644 11.0759 14.7958 11.1337 14.7516 11.1746C14.7074 11.2155 14.642 11.289 14.6063 11.3379C14.5706 11.3869 14.5159 11.4736 14.4847 11.5306C14.4535 11.5877 14.4128 11.6677 14.3943 11.7085C14.3758 11.7492 14.3422 11.8326 14.3197 11.8938C14.2971 11.9549 14.2616 12.0716 14.2408 12.1531C14.22 12.2347 14.1915 12.3688 14.1775 12.4513L14.152 12.6013L14.1522 12.8219L14.1524 13.0424L14.1768 13.1388C14.1901 13.1918 14.2157 13.2718 14.2336 13.3166C14.2515 13.3615 14.2845 13.4282 14.3071 13.4649C14.3296 13.5015 14.3777 13.5606 14.414 13.5961C14.4503 13.6316 14.516 13.6855 14.56 13.7158C14.604 13.7462 14.6823 13.7889 14.734 13.8107L14.8281 13.8503L14.9593 13.8797C15.0314 13.8959 15.1403 13.915 15.2012 13.9222C15.2621 13.9295 15.3912 13.9362 15.488 13.9373ZM15.7893 11.8493C15.3464 11.8493 14.984 11.8464 14.984 11.8428C14.984 11.8392 15.0029 11.7875 15.026 11.7279C15.0491 11.6683 15.0896 11.5796 15.1161 11.5308L15.1643 11.4421L15.2701 11.3445L15.376 11.247L15.48 11.201C15.5372 11.1756 15.6128 11.148 15.648 11.1397C15.6832 11.1313 15.784 11.1202 15.872 11.1149L16.032 11.1055L16.1548 11.1201L16.2777 11.1347L16.367 11.1726L16.4563 11.2105L16.5053 11.2594C16.5322 11.2863 16.5643 11.3259 16.5766 11.3474L16.599 11.3866L16.6137 11.4734L16.6285 11.5603L16.6116 11.7048L16.5947 11.8493H15.7893ZM20.5761 13.9373L20.7522 13.9392L20.9521 13.9172C21.062 13.9051 21.2084 13.8851 21.2773 13.8728C21.3462 13.8604 21.4578 13.8358 21.5253 13.8182C21.5928 13.8005 21.6538 13.7814 21.6609 13.7757C21.6681 13.7701 21.6871 13.7028 21.7033 13.6263C21.7195 13.5497 21.7398 13.4471 21.7486 13.3982C21.7573 13.3493 21.7618 13.3066 21.7586 13.3034C21.7554 13.3002 21.7436 13.3043 21.7324 13.3126C21.7211 13.3208 21.6426 13.3515 21.5579 13.3806L21.4038 13.4336L21.1844 13.473L20.965 13.5124L20.7785 13.5065L20.592 13.5006L20.486 13.4665L20.3801 13.4325L20.2982 13.3662L20.2163 13.2998L20.162 13.2082L20.1077 13.1166L20.0818 12.994L20.056 12.8714L20.0561 12.7124L20.0563 12.5533L20.0877 12.3606L20.1192 12.168L20.1524 12.0642C20.1707 12.0071 20.1914 11.9405 20.1984 11.916C20.2054 11.8915 20.2348 11.8215 20.2636 11.7604C20.2925 11.6992 20.344 11.6047 20.378 11.5504L20.44 11.4516L20.516 11.3785L20.5921 11.3055L20.6726 11.2593L20.7532 11.213L20.8566 11.1835C20.9135 11.1672 21.0141 11.1461 21.0801 11.1366L21.2001 11.1193L21.3761 11.1275L21.5521 11.1357L21.7601 11.1742L21.9681 11.2128L22.0527 11.242C22.0992 11.2581 22.1393 11.2713 22.1418 11.2713C22.1443 11.2713 22.1554 11.2162 22.1666 11.149C22.1778 11.0817 22.1976 10.9711 22.2107 10.9031C22.2238 10.8351 22.2314 10.7766 22.2275 10.773C22.2237 10.7694 22.1612 10.7602 22.0886 10.7525C22.016 10.7449 21.8188 10.7313 21.6504 10.7223L21.3441 10.706L21.1281 10.7213L20.9121 10.7367L20.7521 10.7679L20.5921 10.799L20.489 10.8372C20.4324 10.8582 20.3494 10.8961 20.3046 10.9214C20.2598 10.9467 20.2028 10.9807 20.1779 10.9971C20.153 11.0134 20.0775 11.077 20.0101 11.1384L19.8875 11.2501L19.8191 11.343C19.7815 11.394 19.7164 11.5005 19.6745 11.5796L19.5983 11.7233L19.5398 11.8789C19.5077 11.9645 19.4628 12.1046 19.4401 12.1902L19.3989 12.3458L19.3839 12.4866L19.3689 12.6274L19.3691 12.8127L19.3692 12.998L19.3843 13.1058L19.3994 13.2135L19.4474 13.3244L19.4953 13.4353L19.5506 13.5154L19.606 13.5956L19.694 13.6758L19.782 13.7561L19.8751 13.8017L19.9682 13.8472L20.0906 13.8787C20.1578 13.896 20.255 13.9159 20.3066 13.9229C20.3581 13.9298 20.4792 13.9364 20.5761 13.9373ZM23.208 13.9319L23.424 13.9261L23.56 13.8939L23.696 13.8616L23.784 13.8231C23.8324 13.8019 23.9116 13.7601 23.96 13.7301C24.0084 13.7002 24.0833 13.6433 24.1265 13.6036C24.1696 13.564 24.2336 13.4964 24.2687 13.4534C24.3038 13.4103 24.3346 13.3771 24.3372 13.3795C24.3397 13.3819 24.3317 13.4504 24.3192 13.5318C24.3068 13.6132 24.2965 13.7215 24.2963 13.7724L24.296 13.865H24.5896H24.8833L24.8923 13.6538L24.9012 13.4426L24.9431 13.1684C24.9662 13.0176 25.0034 12.7942 25.0258 12.6719C25.0483 12.5496 25.0873 12.3429 25.1126 12.2124C25.1378 12.082 25.1778 11.8786 25.2014 11.7604L25.2444 11.5455L25.2458 11.3598L25.2473 11.1742L25.202 11.0884L25.1566 11.0026L25.0952 10.9479L25.0338 10.8933L24.9329 10.8459L24.832 10.7986L24.6816 10.7676L24.5313 10.7366L24.3243 10.722L24.1173 10.7074L23.8506 10.7227C23.704 10.7311 23.4976 10.7477 23.392 10.7596L23.2 10.7812L23.0691 10.7817L22.9383 10.7821L22.9192 10.8674C22.9088 10.9142 22.8797 11.0256 22.8546 11.1148C22.8295 11.2041 22.8113 11.2792 22.8141 11.2819C22.817 11.2845 22.887 11.2698 22.9696 11.2492C23.0523 11.2286 23.228 11.1947 23.36 11.1738L23.6 11.136L23.816 11.1277L24.032 11.1195L24.1711 11.1421L24.3103 11.1647L24.4031 11.2071L24.496 11.2496L24.548 11.3214L24.6 11.3932L24.5993 11.5064L24.5985 11.6196L24.571 11.7438L24.5434 11.868L23.9677 11.8699L23.392 11.8718L23.2036 11.9197C23.0999 11.946 22.9852 11.981 22.9486 11.9974C22.9119 12.0137 22.8753 12.0272 22.8672 12.0272C22.859 12.0272 22.7974 12.0588 22.7302 12.0975L22.608 12.1679L22.5118 12.2569C22.4588 12.3058 22.3912 12.3792 22.3615 12.4199C22.3318 12.4607 22.2835 12.5458 22.2542 12.6091L22.201 12.7243L22.1765 12.8537L22.1521 12.9832V13.1189V13.2547L22.1754 13.3678L22.1988 13.4809L22.2421 13.5546C22.2659 13.5952 22.3097 13.6546 22.3393 13.6866L22.3931 13.7449L22.4888 13.7988L22.5845 13.8526L22.6941 13.8813C22.7543 13.8971 22.846 13.9163 22.8979 13.9238L22.9921 13.9376L23.208 13.9319ZM23.408 13.5174L23.28 13.5236L23.1952 13.5036C23.1486 13.4926 23.0778 13.4681 23.038 13.4491L22.9655 13.4146L22.926 13.371C22.9042 13.3471 22.871 13.3001 22.8522 13.2665L22.8179 13.2055L22.8111 13.063L22.8044 12.9205L22.8315 12.8341C22.8465 12.7866 22.8815 12.7041 22.9093 12.6508L22.96 12.5539L23.057 12.4647L23.154 12.3755L23.257 12.3295L23.36 12.2836L23.488 12.2554L23.616 12.2273H24.016H24.416L24.4413 12.2369L24.4666 12.2466L24.4453 12.3629C24.4336 12.4269 24.4056 12.5426 24.3832 12.62C24.3608 12.6975 24.3212 12.8113 24.2952 12.873C24.2692 12.9347 24.248 12.9893 24.248 12.9942C24.248 12.9992 24.2217 13.0442 24.1895 13.0941L24.1311 13.185L24.0352 13.2731C23.9824 13.3215 23.9334 13.3611 23.9263 13.3611C23.9192 13.3611 23.8869 13.3778 23.8544 13.3982L23.7955 13.4352L23.6657 13.4732L23.536 13.5112L23.408 13.5174ZM28.616 13.9372L28.768 13.9389L28.912 13.9173C28.9912 13.9054 29.092 13.8862 29.136 13.8747C29.18 13.8631 29.2592 13.8332 29.312 13.8081L29.408 13.7626L29.4906 13.6952L29.5731 13.6279L29.6601 13.5204C29.708 13.4613 29.7513 13.403 29.7564 13.3908L29.7657 13.3685L29.7576 13.4426C29.7532 13.4834 29.7432 13.5501 29.7355 13.5908C29.7277 13.6316 29.7166 13.71 29.7108 13.765L29.7002 13.865H30.0141H30.328V13.765V13.665L30.3758 13.287C30.4021 13.0791 30.441 12.8023 30.4622 12.6719C30.4834 12.5415 30.5162 12.3547 30.535 12.2569C30.5539 12.1591 30.5872 11.9823 30.6091 11.8641C30.6311 11.7459 30.6706 11.5392 30.6971 11.4046C30.7236 11.2701 30.766 11.0567 30.7913 10.9304C30.8166 10.804 30.8559 10.6072 30.8787 10.4931C30.9015 10.379 30.9423 10.1789 30.9694 10.0485C30.9965 9.91803 31.036 9.73462 31.0573 9.64087C31.0786 9.54712 31.096 9.46542 31.0959 9.4593V9.44819H30.7535H30.4111L30.401 9.54082C30.3954 9.59177 30.3692 9.76018 30.3427 9.91507C30.3162 10.07 30.2731 10.3167 30.2468 10.4635C30.2205 10.6102 30.1952 10.7525 30.1905 10.7797L30.182 10.8291L30.155 10.8184C30.1401 10.8126 30.0595 10.7919 29.9759 10.7724L29.8239 10.7371L29.6159 10.7221L29.4079 10.7071L29.2319 10.7223L29.0559 10.7374L28.8959 10.7749L28.7359 10.8124L28.5839 10.8811L28.4319 10.9497L28.3199 11.0265L28.2079 11.1034L28.1112 11.1994C28.058 11.2523 27.9812 11.3397 27.9404 11.3936L27.8664 11.4918L27.7794 11.6594C27.7316 11.7516 27.6734 11.8738 27.65 11.9308C27.6267 11.9879 27.5856 12.1144 27.5587 12.2119L27.5097 12.3893L27.4856 12.6195L27.4614 12.8498L27.4796 13.035L27.4977 13.2203L27.5191 13.287C27.5309 13.3237 27.5557 13.389 27.5743 13.4322L27.6081 13.5108L27.6697 13.588L27.7313 13.6653L27.8016 13.7186L27.8719 13.772L27.9679 13.8161C28.0207 13.8404 28.1093 13.8718 28.1648 13.8859C28.2202 13.9 28.3102 13.9169 28.3648 13.9234C28.4193 13.93 28.5324 13.9362 28.616 13.9372ZM28.8888 13.5167L28.768 13.5226L28.6864 13.509C28.6416 13.5015 28.5698 13.4815 28.527 13.4645L28.449 13.4335L28.3834 13.3837L28.3179 13.334L28.2691 13.2475L28.2204 13.161L28.1982 13.0647L28.176 12.9683L28.1779 12.7757L28.1797 12.583L28.2055 12.4125L28.2313 12.2421L28.2714 12.1235C28.2935 12.0583 28.3116 11.9968 28.3117 11.9868C28.3119 11.9768 28.3336 11.9234 28.3601 11.8682C28.3866 11.813 28.4308 11.7278 28.4584 11.6788C28.486 11.6299 28.5375 11.5537 28.573 11.5094C28.6084 11.4651 28.6715 11.3984 28.7133 11.3612C28.755 11.324 28.8213 11.2751 28.8607 11.2527L28.9324 11.2118L29.0582 11.1715L29.184 11.1312L29.448 11.131H29.712L29.864 11.1701C29.9476 11.1916 30.0363 11.2165 30.0612 11.2255L30.1065 11.2418L30.0976 11.2824C30.0928 11.3048 30.0738 11.4032 30.0554 11.501C30.037 11.5988 30.0008 11.7856 29.9749 11.916C29.949 12.0464 29.9092 12.2432 29.8865 12.3532C29.8638 12.4633 29.8309 12.6034 29.8134 12.6645C29.7959 12.7256 29.7712 12.8103 29.7585 12.8527C29.7458 12.895 29.7156 12.9684 29.6914 13.0157C29.6671 13.063 29.6248 13.1317 29.5972 13.1684C29.5696 13.2051 29.5229 13.2559 29.4935 13.2814C29.4641 13.3068 29.4004 13.352 29.352 13.3818L29.264 13.4359L29.1368 13.4733L29.0096 13.5107L28.8888 13.5167ZM5.34073 13.865H5.72949L5.75738 13.7057C5.77272 13.6181 5.80268 13.4497 5.82396 13.3315C5.84524 13.2133 5.88484 12.9932 5.91197 12.8424C5.93909 12.6915 5.97975 12.4681 6.00233 12.3458C6.0249 12.2235 6.06077 12.0339 6.08203 11.9243C6.1033 11.8147 6.12473 11.7214 6.12966 11.7168L6.13863 11.7085H7.18396H8.2293L8.2409 11.7192L8.25251 11.73L8.23438 11.8156C8.22441 11.8627 8.19492 12.0079 8.16885 12.1383C8.14278 12.2688 8.09895 12.4889 8.07145 12.6274C8.04395 12.766 8.00418 12.9628 7.98309 13.0647C7.96198 13.1666 7.91929 13.38 7.8882 13.539C7.85711 13.6979 7.83174 13.8363 7.83182 13.8465L7.83198 13.865H8.22234H8.6127L8.62997 13.7724C8.63947 13.7215 8.65475 13.6298 8.66394 13.5686C8.67312 13.5075 8.69525 13.3774 8.71312 13.2796C8.731 13.1818 8.7667 12.9883 8.79247 12.8498C8.81824 12.7112 8.86138 12.4744 8.88833 12.3236C8.91527 12.1728 8.95526 11.9527 8.97717 11.8345C8.99908 11.7163 9.03813 11.5162 9.06395 11.3898C9.08976 11.2635 9.13275 11.05 9.15949 10.9155C9.18623 10.781 9.22628 10.5776 9.2485 10.4635C9.27072 10.3493 9.31123 10.1426 9.33853 10.004C9.36583 9.86542 9.4003 9.70368 9.41513 9.64457L9.4421 9.53712H9.04686H8.65162L8.64087 9.60752C8.63495 9.64624 8.61586 9.75463 8.59843 9.84837C8.58101 9.94212 8.54931 10.1089 8.528 10.2189C8.50668 10.329 8.46773 10.5391 8.44144 10.6858C8.41514 10.8325 8.38164 11.0268 8.36698 11.1174L8.34032 11.2823L7.76012 11.2932L7.17992 11.3041L6.69395 11.2934C6.42667 11.2875 6.2065 11.2815 6.20469 11.2801C6.20288 11.2787 6.21198 11.2211 6.22492 11.1521C6.23785 11.0831 6.26233 10.9633 6.27931 10.8859C6.29629 10.8084 6.32847 10.655 6.35083 10.545C6.37319 10.4349 6.39851 10.2982 6.40711 10.2411C6.4157 10.1841 6.43372 10.089 6.44714 10.0299C6.46056 9.97084 6.48603 9.84634 6.50374 9.75329C6.52145 9.66024 6.54032 9.57353 6.54567 9.56061L6.5554 9.53712H6.16335H5.7713L5.74619 9.66681C5.73238 9.73814 5.71397 9.83985 5.70527 9.89284C5.69658 9.94582 5.66737 10.1159 5.64038 10.2708C5.61338 10.4257 5.57353 10.6558 5.55182 10.7821C5.53011 10.9085 5.49057 11.1386 5.46396 11.2935C5.43735 11.4484 5.39343 11.6885 5.36638 11.8271C5.33932 11.9656 5.30015 12.1624 5.27933 12.2643C5.25851 12.3662 5.21884 12.5596 5.19116 12.6941C5.16349 12.8286 5.12312 13.0187 5.10145 13.1166C5.07978 13.2144 5.05582 13.3278 5.04821 13.3685C5.0406 13.4093 5.01584 13.5268 4.99318 13.6298C4.97052 13.7327 4.95198 13.8277 4.95198 13.841V13.865H5.34073ZM9.64439 13.865H9.98854L9.99826 13.8416C10.0036 13.8287 10.008 13.7949 10.008 13.7664C10.008 13.738 10.0296 13.5901 10.0561 13.4379C10.0825 13.2856 10.1262 13.0376 10.1532 12.8868C10.1801 12.736 10.22 12.5159 10.2417 12.3977C10.2634 12.2795 10.302 12.0827 10.3275 11.9605C10.3529 11.8382 10.392 11.6481 10.4144 11.538C10.4367 11.428 10.4806 11.2186 10.5119 11.0728C10.5432 10.9269 10.5728 10.8017 10.5776 10.7946L10.5862 10.7816L10.2382 10.7856L9.89019 10.7895L9.8612 10.9822C9.84526 11.0882 9.81041 11.2983 9.78375 11.4491C9.75709 11.5999 9.71677 11.83 9.69414 11.9605C9.67152 12.0909 9.63206 12.301 9.60646 12.4273C9.58086 12.5537 9.54164 12.7471 9.51929 12.8572C9.49694 12.9672 9.45684 13.1606 9.43018 13.287C9.40351 13.4134 9.36773 13.5801 9.35067 13.6575C9.3336 13.735 9.31527 13.8134 9.30994 13.8317L9.30024 13.865H9.64439ZM17.6936 13.865H18.0352L18.0454 13.7311C18.0511 13.6575 18.0704 13.5091 18.0884 13.4014C18.1064 13.2936 18.1432 13.0788 18.1702 12.9239C18.1972 12.769 18.2475 12.5112 18.2818 12.351C18.3162 12.1908 18.355 12.0315 18.3681 11.9971C18.3812 11.9627 18.392 11.9254 18.392 11.9142C18.392 11.903 18.4177 11.8422 18.449 11.779C18.4804 11.7157 18.5389 11.619 18.579 11.5639L18.652 11.4637L18.7496 11.38L18.8472 11.2962L18.9676 11.243L19.088 11.1897L19.272 11.1906L19.456 11.1915L19.5464 11.2166C19.5962 11.2303 19.6412 11.2416 19.6464 11.2416C19.6517 11.2416 19.656 11.2258 19.656 11.2066C19.656 11.1873 19.674 11.0897 19.696 10.9896C19.718 10.8896 19.736 10.8035 19.736 10.7983C19.736 10.7932 19.6838 10.7742 19.62 10.7563C19.5562 10.7383 19.468 10.7195 19.424 10.7144L19.344 10.7053L19.24 10.7223C19.1828 10.7317 19.0977 10.7524 19.051 10.7683C19.0042 10.7842 18.927 10.8203 18.8794 10.8485C18.8318 10.8767 18.7578 10.9317 18.7149 10.9707C18.672 11.0096 18.5998 11.0882 18.5546 11.1453C18.5093 11.2023 18.4619 11.2623 18.4493 11.2787L18.4264 11.3083L18.4403 11.249C18.448 11.2164 18.4693 11.1097 18.4877 11.0119C18.5061 10.914 18.5249 10.8223 18.5296 10.8081L18.5381 10.7821H18.233H17.928V10.8179C17.928 10.8375 17.91 10.9559 17.888 11.0809C17.8659 11.206 17.8297 11.415 17.8073 11.5454C17.785 11.6759 17.7453 11.9026 17.7192 12.0494C17.693 12.1961 17.6534 12.4062 17.631 12.5163C17.6087 12.6263 17.5689 12.8197 17.5428 12.9461C17.5166 13.0724 17.4732 13.2792 17.4462 13.4056C17.4193 13.5319 17.3871 13.6811 17.3746 13.7372C17.3622 13.7932 17.352 13.8449 17.352 13.852V13.865L17.6936 13.865ZM25.8027 13.865H26.152V13.766V13.667L26.1922 13.4214C26.2144 13.2864 26.2509 13.0725 26.2734 12.9461C26.2959 12.8197 26.3239 12.6597 26.3357 12.5904C26.3475 12.5211 26.3787 12.371 26.4051 12.2569C26.4314 12.1428 26.4644 12.0194 26.4783 11.9827C26.4921 11.946 26.5036 11.9075 26.5037 11.8972C26.5039 11.8868 26.5336 11.8202 26.5699 11.7492L26.6358 11.62L26.7228 11.5129L26.8098 11.4059L26.905 11.3396C26.9573 11.3031 27.0415 11.2548 27.0921 11.2321L27.184 11.1909L27.384 11.1921L27.584 11.1934L27.6627 11.2168L27.7414 11.2402L27.7547 11.2326L27.768 11.225L27.7686 11.1778C27.769 11.1517 27.7861 11.055 27.8067 10.9627L27.8441 10.7949L27.802 10.7796C27.7789 10.7712 27.724 10.7539 27.68 10.741L27.6 10.7177L27.456 10.718L27.312 10.7184L27.1946 10.7566L27.0773 10.7949L26.9892 10.8441L26.901 10.8933L26.7865 11.0045L26.6719 11.1156L26.6104 11.2019C26.5765 11.2493 26.5467 11.286 26.5441 11.2834C26.5416 11.2808 26.56 11.182 26.585 11.0638C26.6101 10.9456 26.6309 10.8338 26.6313 10.8155L26.632 10.7821H26.336H26.04V10.7916C26.04 10.7968 26.0252 10.8918 26.0072 11.0028C25.9891 11.1138 25.9529 11.328 25.9267 11.4788C25.9005 11.6296 25.8575 11.873 25.8311 12.0198C25.8047 12.1665 25.765 12.3766 25.7428 12.4866C25.7205 12.5967 25.6811 12.7901 25.6551 12.9165C25.6291 13.0428 25.5863 13.2462 25.5601 13.3685C25.5339 13.4908 25.4992 13.6525 25.4829 13.728L25.4534 13.8651L25.8027 13.865ZM10.3211 10.2482L10.4183 10.2486L10.4955 10.2242L10.5727 10.1998L10.6411 10.1356L10.7094 10.0714L10.7454 9.98581L10.7814 9.90025L10.7827 9.77426L10.784 9.64828L10.752 9.59909L10.72 9.54989L10.6643 9.51794L10.6085 9.48598H10.4883L10.368 9.48598L10.2861 9.51995L10.2042 9.55391L10.1566 9.60109L10.1091 9.64828L10.0718 9.7298L10.0344 9.81132L10.0274 9.9383L10.0203 10.0653L10.0551 10.1284L10.0898 10.1915L10.1569 10.2197L10.224 10.2479L10.3211 10.2482Z" fill="#B3131B"/>
</g>
<defs>
<clipPath id="clip0_1742_24077">
<rect width="32" height="13.1765" fill="white" transform="translate(2 5.41174)"/>
</clipPath>
</defs>
</svg>
