<svg width="36" height="24" viewBox="0 0 36 24" fill="none" xmlns="http://www.w3.org/2000/svg">
<rect width="36" height="24" fill="white"/>
<path fill-rule="evenodd" clip-rule="evenodd" d="M22.8951 12.2936H24.3091C24.3325 12.2939 24.3559 12.2953 24.3791 12.2976C24.4073 12.3006 24.4353 12.3046 24.4631 12.3096L24.4723 12.3112C24.5127 12.3203 24.552 12.3337 24.5895 12.3512C24.6813 12.3926 24.7615 12.4558 24.8231 12.5352C24.88 12.6076 24.9199 12.6918 24.9399 12.7816C24.9763 12.9433 24.9512 13.1126 24.8695 13.2568C24.8185 13.3449 24.7464 13.4189 24.6595 13.472C24.6018 13.5078 24.5386 13.5337 24.4723 13.5488L24.4631 13.5508C24.4509 13.5537 24.4385 13.5559 24.4259 13.5572C24.3872 13.5627 24.3482 13.5659 24.3091 13.5668H22.8951V12.2936ZM24.7763 10.852C24.8057 10.9882 24.7893 11.1302 24.7295 11.256C24.6786 11.3588 24.597 11.4433 24.4959 11.4976C24.4379 11.5301 24.3747 11.5524 24.3091 11.5636L24.3035 11.5644C24.2899 11.5669 24.2762 11.5686 24.2623 11.5696C24.2312 11.5726 24.2 11.5745 24.1687 11.5752H22.8951V10.4004H24.1923C24.2235 10.4016 24.2546 10.4043 24.2855 10.4084L24.3035 10.4104L24.3091 10.4116C24.3574 10.42 24.4044 10.4344 24.4491 10.4544C24.4904 10.4732 24.5295 10.4962 24.5659 10.5232C24.6104 10.5571 24.6497 10.5973 24.6827 10.6424C24.7281 10.7051 24.76 10.7764 24.7763 10.852ZM27.6735 4.75842H27.6831V16.828C27.6827 17.1356 27.6239 17.4403 27.5099 17.726C27.4428 17.894 27.3566 18.0537 27.2531 18.202C27.2379 18.2239 27.2223 18.2455 27.2063 18.2668L27.1827 18.2972C27.1601 18.3267 27.1367 18.3556 27.1127 18.384L27.0895 18.4116L27.0659 18.4376C27.0507 18.4548 27.0353 18.4717 27.0195 18.4884L26.9959 18.5124L26.9727 18.5364L26.9491 18.5592L26.9259 18.5816C26.8881 18.6172 26.8492 18.6517 26.8091 18.6848L26.7855 18.704L26.7623 18.7228L26.7391 18.7408L26.7155 18.7584L26.6923 18.7756L26.6687 18.7928L26.6455 18.8088L26.6219 18.8252L26.5987 18.8408L26.5755 18.856L26.5519 18.8708C26.5365 18.8806 26.5209 18.8902 26.5051 18.8996L26.4819 18.9136C26.4742 18.9181 26.4665 18.9225 26.4587 18.9268L26.4351 18.94L26.4119 18.9528L26.3883 18.9648L26.3651 18.9772L26.3415 18.9892L26.3183 19.0004L26.2951 19.0116L26.2715 19.0224L26.2483 19.0332L26.2247 19.0432L26.2015 19.0532L26.1783 19.0628L26.1547 19.0724L26.1315 19.0816L26.1079 19.0904L26.0847 19.0988L26.0611 19.1068C26.0535 19.1096 26.0459 19.1128 26.0379 19.1152L26.0147 19.1228L25.9911 19.1304L25.9679 19.1376L25.9443 19.1444L25.9211 19.1512L25.8979 19.1576L25.8743 19.164L25.8511 19.1696L25.8275 19.1756L25.8043 19.1812L25.7807 19.186L25.7575 19.1912L25.7343 19.196L25.7107 19.2L25.6875 19.2048L25.6639 19.2088L25.6407 19.2124L25.6175 19.216L25.5939 19.2192L25.5707 19.2224L25.5471 19.2252L25.5239 19.2276L25.5007 19.23L25.4771 19.2324L25.4539 19.2344L25.4303 19.236L25.4071 19.2376C25.3991 19.2376 25.3911 19.2384 25.3835 19.2388L25.3603 19.2396L25.3371 19.2404L25.3135 19.2412H25.2903L25.2667 19.2416H21.7119V14.3208H25.5007L25.5239 14.32L25.5471 14.3196C25.5551 14.3196 25.5631 14.3188 25.5707 14.3184L25.5939 14.3176L25.6175 14.316L25.6407 14.3144L25.6639 14.3128L25.6875 14.3104L25.7107 14.3084L25.7343 14.3056L25.7575 14.3028L25.7807 14.2996L25.8043 14.2964L25.8275 14.2924L25.8511 14.2884L25.8743 14.2844L25.8979 14.2804L25.9211 14.2752L25.9443 14.2704C25.9522 14.2686 25.9601 14.2667 25.9679 14.2648L25.9911 14.2592C26.0226 14.2515 26.0538 14.243 26.0847 14.2336L26.1079 14.2264C26.1316 14.219 26.1551 14.211 26.1783 14.2024L26.2015 14.1932L26.2247 14.1844L26.2483 14.1748C26.393 14.1136 26.5271 14.0299 26.6455 13.9268C26.7062 13.8718 26.7611 13.8107 26.8091 13.7444C26.8846 13.6377 26.94 13.5182 26.9727 13.3916C26.9958 13.3012 27.0071 13.2081 27.0063 13.1148C27.0063 13.0243 26.995 12.9342 26.9727 12.8464C26.9344 12.6989 26.8624 12.5623 26.7623 12.4472C26.7007 12.3748 26.63 12.3105 26.5519 12.256C26.4788 12.2032 26.4005 12.1578 26.3183 12.1204C26.2953 12.1097 26.2719 12.0996 26.2483 12.09L26.2247 12.0804C26.217 12.0774 26.2093 12.0745 26.2015 12.0716L26.1783 12.0632C26.1474 12.0522 26.1162 12.0419 26.0847 12.0324L26.0611 12.0256C26.015 12.0123 25.9683 12.0008 25.9211 11.9912L25.8979 11.9864L25.8743 11.982L25.8511 11.978C25.8433 11.9766 25.8354 11.9753 25.8275 11.974L25.8043 11.97C25.7965 11.9689 25.7886 11.9678 25.7807 11.9668L25.7575 11.9636L25.7343 11.9604L25.7107 11.958L25.6875 11.9556L25.6639 11.9532L25.6407 11.9512L25.6191 11.9496V11.9216L25.6407 11.9184L25.6639 11.9144L25.6875 11.9104L25.7107 11.9064L25.7343 11.9012L25.7575 11.896C25.8453 11.8763 25.9313 11.8494 26.0147 11.8156C26.1141 11.7743 26.2081 11.7213 26.2947 11.6576C26.4335 11.5539 26.5457 11.4188 26.6219 11.2632C26.6724 11.1571 26.7041 11.043 26.7155 10.926C26.7235 10.8498 26.7235 10.773 26.7155 10.6968C26.7056 10.5984 26.682 10.5019 26.6455 10.41C26.5934 10.2813 26.5136 10.1655 26.4119 10.0708C26.3687 10.0292 26.3218 9.99147 26.2719 9.95802C26.2056 9.91242 26.135 9.8733 26.0611 9.84122C26.0004 9.8143 25.938 9.79119 25.8743 9.77202L25.8511 9.76522C25.8356 9.76074 25.82 9.75647 25.8043 9.75242L25.7807 9.74682C25.7653 9.74288 25.7499 9.73914 25.7343 9.73562L25.7107 9.73082L25.6875 9.72602L25.6639 9.72202L25.6407 9.71802L25.6175 9.71402L25.5939 9.71002L25.5707 9.70682L25.5471 9.70402L25.5239 9.70122L25.5007 9.69882L25.4771 9.69642L25.4539 9.69442L25.4303 9.69242L25.4071 9.69082L25.3835 9.68962L25.3743 9.68882L25.3603 9.68802L25.3371 9.68682L25.3135 9.68522L25.2903 9.68402L25.2667 9.68322L25.2435 9.68202L25.2199 9.68122L25.1967 9.68042L25.1735 9.68002H25.1499L25.1371 9.67962H21.7115V7.17282C21.7117 6.81174 21.7928 6.45528 21.9487 6.12962C21.9901 6.04292 22.0369 5.95889 22.0887 5.87802C22.104 5.85427 22.1198 5.8308 22.1359 5.80762L22.1591 5.77442C22.1744 5.75312 22.19 5.73205 22.2059 5.71122L22.2291 5.68082L22.2527 5.65202C22.2679 5.6331 22.2834 5.61443 22.2991 5.59602L22.3227 5.57002L22.3459 5.54402C22.3689 5.51903 22.3924 5.49449 22.4163 5.47042L22.4395 5.44762L22.4627 5.42482L22.4863 5.40322L22.5095 5.38162L22.5331 5.36122C22.5636 5.33436 22.5947 5.30822 22.6263 5.28282L22.6499 5.26482L22.6731 5.24682C22.6886 5.23518 22.7042 5.22371 22.7199 5.21242L22.7431 5.19602C22.751 5.19064 22.7588 5.1853 22.7667 5.18002L22.7899 5.16402L22.8135 5.14842L22.8367 5.13362L22.8599 5.11922L22.8835 5.10482L22.9067 5.09082L22.9303 5.07722L22.9535 5.06402L22.9771 5.05122L23.0003 5.03882L23.0235 5.02682L23.0471 5.01482L23.0703 5.00282L23.0939 4.99202C23.1015 4.98802 23.1095 4.98482 23.1171 4.98122L23.1403 4.97042L23.1639 4.96002L23.1871 4.95002L23.2107 4.94042L23.2339 4.93082L23.2575 4.92162L23.2807 4.91282L23.3039 4.90402L23.3275 4.89602L23.3507 4.88762L23.3743 4.87962L23.3975 4.87242L23.4207 4.86482L23.4443 4.85802L23.4675 4.85122L23.4911 4.84482L23.5143 4.83842L23.5379 4.83242L23.5611 4.82682L23.5843 4.82122L23.6079 4.81602L23.6311 4.81082L23.6547 4.80602L23.6779 4.80162L23.7011 4.79722L23.7247 4.79322L23.7479 4.78922L23.7715 4.78562L23.7947 4.78242L23.8183 4.77922L23.8415 4.77642L23.8647 4.77362L23.8883 4.77122L23.9115 4.76882L23.9351 4.76682L23.9583 4.76522L23.9815 4.76362C23.9895 4.76362 23.9975 4.76282 24.0051 4.76242L24.0283 4.76122L24.0519 4.76042L24.0751 4.75962H24.0987L24.1219 4.75922H27.6735V4.75842Z" fill="#54B230"/>
<path fill-rule="evenodd" clip-rule="evenodd" d="M8.31677 13.134V7.17202C8.31698 6.81137 8.39789 6.45534 8.55357 6.13002C8.60736 6.0182 8.66968 5.91068 8.73997 5.80842L8.76317 5.77482L8.78677 5.74282L8.80997 5.71162L8.83317 5.68162L8.85677 5.65242C8.87195 5.63351 8.88741 5.61485 8.90317 5.59642L8.92677 5.57042C8.93443 5.56169 8.94217 5.55303 8.94997 5.54442L8.97317 5.51922C8.98854 5.503 9.00414 5.487 9.01997 5.47122L9.04317 5.44802L9.06637 5.42562L9.08997 5.40362L9.11317 5.38242L9.13637 5.36162L9.15997 5.34162L9.18317 5.32162C9.22108 5.28967 9.26003 5.25899 9.29997 5.22962L9.32317 5.21282C9.35369 5.1907 9.38477 5.16936 9.41637 5.14882L9.43957 5.13402L9.46317 5.11962L9.48637 5.10522L9.50957 5.09122L9.53317 5.07762L9.55637 5.06482L9.57957 5.05162L9.60317 5.03962L9.62637 5.02682L9.64957 5.01482L9.67317 5.00362C9.68077 4.99962 9.68837 4.99562 9.69637 4.99242L9.71957 4.98122L9.74277 4.97042L9.76637 4.96042L9.78957 4.95042L9.81277 4.94042L9.83637 4.93122L9.85957 4.92202L9.88277 4.91322L9.90637 4.90402L9.92957 4.89602L9.95277 4.88802L9.97637 4.88002L9.99957 4.87242L10.0228 4.86522L10.0464 4.85802L10.0696 4.85122L10.0928 4.84482L10.1164 4.83842L10.1396 4.83242L10.1628 4.82682L10.186 4.82122C10.1938 4.81915 10.2016 4.81742 10.2096 4.81602L10.2328 4.81082L10.256 4.80602L10.2796 4.80162L10.3028 4.79682L10.326 4.79282L10.3496 4.78882C10.3576 4.78802 10.3648 4.78642 10.3728 4.78522L10.396 4.78202L10.4196 4.77882L10.4428 4.77602L10.466 4.77322L10.4896 4.77082L10.5128 4.76842L10.536 4.76642L10.5592 4.76482L10.5828 4.76322L10.606 4.76162L10.6292 4.76082L10.6528 4.75962L10.676 4.75882H10.6992L10.7228 4.75842H14.288V16.8272C14.2877 17.0996 14.2415 17.3701 14.1516 17.6272C14.0611 17.8852 13.9268 18.1256 13.7548 18.338L13.7316 18.3668C13.7162 18.3852 13.7006 18.4033 13.6848 18.4212L13.6616 18.4472L13.6384 18.4724L13.6148 18.4972C13.5845 18.5287 13.5535 18.5594 13.5216 18.5892L13.4984 18.6108L13.4748 18.6316L13.4516 18.652L13.4284 18.672L13.4052 18.6916L13.3816 18.71L13.3584 18.7288L13.3352 18.7464L13.3116 18.7644L13.2884 18.7812L13.2652 18.798L13.2416 18.814L13.2184 18.83L13.1952 18.8456L13.1716 18.8608C13.164 18.866 13.1564 18.8704 13.1484 18.8752L13.1252 18.89L13.1016 18.9036L13.0784 18.9176C13.0704 18.9216 13.0628 18.9264 13.0552 18.9308C13.0397 18.9396 13.0241 18.9481 13.0084 18.9564L12.9852 18.9684L12.962 18.9804L12.9384 18.9924L12.9152 19.0036L12.892 19.0144L12.8684 19.0256L12.8452 19.0356L12.822 19.046L12.7984 19.056L12.7752 19.0652L12.752 19.0748L12.7284 19.0836L12.7052 19.0924L12.682 19.1004L12.6588 19.1088L12.6352 19.1168L12.612 19.1248C12.604 19.1268 12.5964 19.1296 12.5888 19.132L12.5652 19.1388L12.542 19.146L12.5188 19.1524L12.4952 19.1588L12.472 19.1652L12.4488 19.1708L12.4252 19.1764L12.402 19.182L12.3788 19.1868L12.3552 19.192L12.332 19.1964L12.3088 19.2008L12.2856 19.2048L12.262 19.2088L12.2388 19.2128L12.2156 19.216L12.192 19.2192L12.1688 19.2224L12.1456 19.2252L12.122 19.2276L12.0988 19.23L12.0756 19.232L12.052 19.234L12.0288 19.2356L12.0056 19.2372L11.982 19.2384L11.9588 19.2392L11.9356 19.24L11.9124 19.2404H11.8888L11.8672 19.2412H8.31677V14.1544L8.36677 14.1676L8.38997 14.1732L8.41357 14.1788L8.43677 14.1844L8.45997 14.19L8.48357 14.1956L8.50677 14.2008L8.52997 14.206L8.55357 14.2112L8.57677 14.2164L8.59997 14.2212L8.62357 14.2264L8.64677 14.2312L8.66997 14.236L8.69317 14.2408L8.71677 14.2456L8.73997 14.25L8.76317 14.2548L8.78677 14.2592L8.80997 14.2636L8.83317 14.268L8.85677 14.2724L8.87997 14.2768L8.90317 14.2808L8.92677 14.2852L8.94997 14.2892L8.97317 14.2932L8.99677 14.2972L9.01997 14.3012L9.04317 14.3052L9.06637 14.3092L9.08997 14.3132L9.11317 14.3172L9.13637 14.3204L9.15997 14.3244L9.18317 14.328L9.20637 14.3316L9.22997 14.3348L9.25317 14.3384L9.27637 14.3416L9.29997 14.3452L9.32317 14.3484L9.34637 14.3516L9.36997 14.3548L9.39317 14.358L9.41637 14.3612L9.43957 14.364L9.46317 14.3672L9.48637 14.37L9.50957 14.3732L9.53317 14.376L9.55637 14.3788L9.57957 14.3816L9.60317 14.384L9.62637 14.3868L9.64957 14.3896L9.67317 14.392L9.69637 14.3944L9.71957 14.3968L9.74277 14.3992L9.76637 14.4016L9.78957 14.404L9.81277 14.4064L9.83637 14.4084L9.85957 14.4104L9.88277 14.4128L9.90637 14.4148L9.92957 14.4168L9.95277 14.4188L9.97637 14.4204L9.99957 14.4224L10.0228 14.424L10.0464 14.426L10.0696 14.4276L10.0928 14.4292L10.1164 14.4308L10.1396 14.4324L10.1628 14.434L10.186 14.4352L10.2096 14.4368L10.2328 14.438L10.256 14.4392L10.2796 14.4404L10.3028 14.4416L10.326 14.4428L10.3496 14.444L10.3728 14.4452L10.396 14.446L10.4196 14.4468L10.4428 14.4476L10.466 14.4484L10.4896 14.4492L10.5128 14.45L10.536 14.4508L10.5592 14.4512L10.5828 14.452H10.606L10.6292 14.4528H10.6528L10.676 14.4536H10.7228L10.746 14.454H10.9092L10.9324 14.4532H10.956L10.9792 14.4524L11.0024 14.452L11.026 14.4512L11.0492 14.4508L11.0724 14.45L11.096 14.4492L11.1192 14.4484L11.1424 14.4476L11.166 14.4464L11.1892 14.4452L11.2124 14.4444L11.236 14.4432L11.2592 14.4416L11.2824 14.4404L11.3056 14.4392L11.3292 14.4376L11.3524 14.4356L11.3756 14.434L11.3992 14.4324L11.4224 14.4304L11.4456 14.4284L11.4692 14.4264L11.4924 14.4244L11.5156 14.4224L11.5392 14.42L11.5624 14.4176L11.5856 14.4152L11.6088 14.4128L11.6324 14.41L11.6556 14.4072L11.6788 14.4044L11.7024 14.4016L11.7256 14.3984L11.7488 14.3952L11.7724 14.392L11.7956 14.3884L11.8188 14.3852L11.8424 14.3812L11.8656 14.378L11.8888 14.374L11.9124 14.37L11.9356 14.366L11.9588 14.362L11.982 14.3576L12.0056 14.3532L12.0288 14.3484C12.0368 14.3472 12.0444 14.3452 12.052 14.3436L12.0756 14.3392L12.0988 14.334L12.122 14.3288L12.1456 14.3236L12.1688 14.3184L12.192 14.3128L12.2156 14.3072L12.2388 14.3012L12.262 14.2952L12.2856 14.2888L12.3088 14.2828L12.332 14.276L12.3552 14.2696L12.3788 14.2628L12.402 14.2556L12.4252 14.2484L12.4488 14.2408L12.472 14.2332L12.4952 14.2252L12.5188 14.2172L12.542 14.2092L12.5652 14.2004L12.5888 14.192L12.612 14.1828L12.6352 14.1736L12.6588 14.1644L12.682 14.1544L12.7052 14.1448L12.7284 14.1344L12.752 14.1236L12.7752 14.1128C12.7832 14.1092 12.7912 14.1056 12.7984 14.1016L12.822 14.0904L12.8452 14.0784L12.8684 14.0664L12.892 14.0544C12.9155 14.0415 12.9389 14.0282 12.962 14.0144L12.9852 14.0004L13.0084 13.986L13.032 13.9712L13.0552 13.9556L13.0784 13.94C13.0864 13.9344 13.0944 13.9292 13.1016 13.9236L13.1252 13.9068L13.1484 13.8892C13.1722 13.8712 13.1955 13.8525 13.2184 13.8332L13.2416 13.8132L13.2652 13.792L13.2884 13.7704C13.3043 13.7553 13.3199 13.7398 13.3352 13.724L13.3584 13.7L13.3816 13.674C13.4753 13.5689 13.5538 13.451 13.6148 13.324C13.6526 13.2462 13.684 13.1654 13.7084 13.0824C13.7275 13.0181 13.743 12.9528 13.7548 12.8868C13.7788 12.7526 13.7905 12.6164 13.79 12.48V9.67922H11.7256L11.708 12.48C11.7077 12.5763 11.6979 12.6724 11.6788 12.7668C11.6625 12.8433 11.6391 12.918 11.6088 12.99C11.5722 13.0749 11.5252 13.1548 11.4688 13.228C11.4088 13.3052 11.3383 13.3734 11.2592 13.4308C11.1734 13.4937 11.0791 13.5441 10.9792 13.5804C10.9408 13.5947 10.9018 13.6072 10.8624 13.618L10.8392 13.6244C10.793 13.6364 10.7463 13.646 10.6992 13.6532L10.676 13.6572C10.6604 13.6594 10.6448 13.6614 10.6292 13.6632L10.606 13.6656L10.5828 13.668L10.5592 13.67C10.5437 13.6712 10.5283 13.6721 10.5128 13.6728L10.4896 13.674L10.466 13.6748H10.4428L10.4196 13.6756H10.3728L10.3496 13.6748H10.326L10.3028 13.674L10.2796 13.6732L10.256 13.672L10.2328 13.6712L10.2096 13.67L10.186 13.6684L10.1628 13.6668L10.1396 13.6652L10.1164 13.6636L10.0928 13.6616L10.0696 13.6596L10.0464 13.6572L10.0228 13.6548L9.99957 13.6524L9.97637 13.6496L9.95277 13.6468L9.92957 13.644L9.90637 13.6408L9.88277 13.6376L9.85957 13.6344L9.83637 13.6308L9.81277 13.6268L9.78957 13.6232L9.76637 13.6192L9.74277 13.6152L9.71957 13.6112L9.69637 13.6072L9.67317 13.6024L9.64957 13.598L9.62637 13.5932L9.60317 13.5884L9.57957 13.5832L9.55637 13.5784L9.53317 13.5732L9.50957 13.5676L9.48637 13.562L9.46317 13.5564L9.43957 13.5508L9.41637 13.5448L9.39317 13.5388L9.36997 13.5328L9.34637 13.5264L9.32317 13.52L9.29997 13.5136L9.27637 13.5068L9.25317 13.5L9.22997 13.4932L9.20637 13.4864L9.18317 13.4792L9.15997 13.472L9.13637 13.4644L9.11317 13.4572L9.08997 13.4492L9.06637 13.4416L9.04317 13.4336L9.01997 13.4256L8.99677 13.4176L8.97317 13.4096L8.94997 13.4016L8.92677 13.3928L8.90317 13.3844L8.87997 13.3756L8.85677 13.3668L8.83317 13.358L8.80997 13.3492L8.78677 13.34L8.76317 13.3308L8.73997 13.3216L8.71677 13.312L8.69317 13.3024L8.66997 13.2928L8.64677 13.2832L8.62357 13.2732L8.59997 13.2632L8.57677 13.2532L8.55357 13.2428L8.52997 13.2328L8.50677 13.2224L8.48357 13.212L8.45997 13.2012L8.43677 13.1904L8.41357 13.1796L8.38997 13.1688L8.36677 13.158L8.31677 13.134Z" fill="#006CB9"/>
<path fill-rule="evenodd" clip-rule="evenodd" d="M15.064 10.2912C15.0473 10.3048 15.0307 10.3187 15.0144 10.3328V7.17279C15.0145 6.81204 15.0952 6.45587 15.2508 6.13039C15.3047 6.01854 15.3672 5.91103 15.4376 5.80879L15.4608 5.77519L15.4844 5.74319C15.4921 5.73286 15.4998 5.72259 15.5076 5.71239L15.5308 5.68199L15.5544 5.65319C15.5696 5.63428 15.585 5.61562 15.6008 5.59719L15.624 5.57079L15.6476 5.54479C15.6778 5.51192 15.7088 5.47991 15.7408 5.44879L15.764 5.42599L15.7876 5.40439L15.8108 5.38279L15.834 5.36199L15.8576 5.34199L15.8808 5.32199C15.9263 5.28439 15.973 5.24824 16.0208 5.21359C16.0439 5.19697 16.0672 5.1807 16.0908 5.16479L16.114 5.14959L16.1372 5.13439L16.1608 5.11999L16.184 5.10559L16.2072 5.09199L16.2308 5.07799L16.254 5.06519L16.2772 5.05199L16.3008 5.03999L16.324 5.02759L16.3472 5.01559L16.3708 5.00399L16.394 4.99279L16.4172 4.98199L16.4404 4.97119L16.464 4.96079L16.4872 4.95079L16.5104 4.94119L16.534 4.93159L16.5572 4.92239L16.5804 4.91359L16.604 4.90479L16.6272 4.89679L16.6504 4.88839L16.674 4.88039L16.6972 4.87279L16.7204 4.86559L16.744 4.85879L16.7672 4.85159L16.7904 4.84519L16.814 4.83879L16.8372 4.83279L16.8604 4.82719L16.8836 4.82159L16.9072 4.81639L16.9304 4.81119L16.9536 4.80639L16.9772 4.80199L17.0004 4.79759L17.0236 4.79359L17.0472 4.78959L17.0704 4.78559L17.0936 4.78239L17.1172 4.77919L17.1404 4.77639L17.1636 4.77359L17.1872 4.77119L17.2104 4.76879L17.2336 4.76679L17.2572 4.76519L17.2804 4.76359L17.3036 4.76199L17.3268 4.76119L17.3504 4.75999L17.3736 4.75919H17.3968L17.4204 4.75879H20.986V16.8276C20.9856 17.1 20.9394 17.3705 20.8492 17.6276C20.7943 17.7825 20.7239 17.9315 20.6392 18.0724C20.6242 18.0972 20.6087 18.1217 20.5928 18.146C20.5848 18.158 20.5772 18.17 20.5692 18.1812C20.5324 18.2351 20.4936 18.2875 20.4528 18.3384L20.4292 18.3672L20.406 18.3948L20.3828 18.4212L20.3592 18.4476L20.336 18.4728L20.3128 18.4976L20.2896 18.5216C20.2667 18.5447 20.2434 18.5674 20.2196 18.5896L20.196 18.6112L20.1728 18.632L20.1496 18.6524L20.126 18.6724L20.1028 18.6916L20.0796 18.7104L20.056 18.7292L20.0328 18.7468L20.0096 18.7644L19.986 18.7816L19.9628 18.7984L19.9396 18.8144L19.916 18.8304L19.8928 18.846L19.8696 18.8612L19.8464 18.8756L19.8228 18.8904L19.7996 18.904L19.7764 18.918C19.7686 18.9224 19.7607 18.9268 19.7528 18.9312L19.7296 18.944L19.7064 18.9568L19.6828 18.9688L19.6596 18.9808L19.6364 18.9928L19.6128 19.004C19.6052 19.008 19.5972 19.0112 19.5896 19.0148L19.5664 19.0256C19.5584 19.0296 19.5504 19.0328 19.5428 19.036L19.5196 19.0464L19.4964 19.056L19.4728 19.0656L19.4496 19.0752L19.4264 19.084L19.4032 19.0928L19.3796 19.1008L19.3564 19.1092L19.3332 19.1172L19.3096 19.1252C19.3016 19.1272 19.294 19.13 19.2864 19.1324L19.2632 19.1392L19.2396 19.1464L19.2164 19.1528L19.1932 19.1592L19.1696 19.1656L19.1464 19.1712L19.1232 19.1768L19.0996 19.1824L19.0764 19.1872L19.0532 19.1924L19.0296 19.1968L19.0064 19.2012L18.9832 19.2052L18.96 19.2092L18.9364 19.2132L18.9132 19.2164L18.89 19.2196L18.8664 19.2228L18.8432 19.2256L18.82 19.228L18.7964 19.2304L18.7732 19.2324L18.75 19.2344L18.7264 19.236L18.7032 19.2376L18.68 19.2388L18.6564 19.2396L18.6332 19.2404L18.61 19.2408L18.5864 19.2412H15.0144V13.6688C15.0459 13.6957 15.0782 13.7217 15.1112 13.7468L15.1344 13.7644L15.1576 13.7816C15.1731 13.7928 15.1887 13.8039 15.2044 13.8148L15.2276 13.8308L15.2508 13.846L15.2744 13.8612L15.2976 13.876L15.3208 13.8904L15.3444 13.9048L15.3676 13.9184L15.3908 13.932L15.4144 13.9452L15.4376 13.958L15.4608 13.9708L15.4844 13.9828L15.5076 13.9948L15.5308 14.0068L15.5544 14.0184L15.5776 14.0296L15.6008 14.0408L15.624 14.0516L15.6476 14.062L15.6708 14.0724L15.694 14.0824L15.7176 14.0924L15.7408 14.102L15.764 14.1116L15.7876 14.1208L15.8108 14.13L15.834 14.1392L15.8576 14.148L15.8808 14.156L15.904 14.1648L15.9276 14.1728L15.9508 14.1808L15.974 14.1888L15.9972 14.1968L16.0208 14.204L16.044 14.2116L16.0672 14.2188L16.0908 14.2256L16.114 14.2324L16.1372 14.2392L16.1608 14.246L16.184 14.2524L16.2072 14.2588L16.2308 14.2652L16.254 14.2712L16.2772 14.2772L16.3008 14.2828L16.324 14.2884L16.3472 14.294L16.3708 14.2996L16.394 14.3048L16.4172 14.31L16.4404 14.3152L16.464 14.32L16.4872 14.3248L16.5104 14.3296L16.534 14.3344L16.5572 14.3388L16.5804 14.3432L16.604 14.3472L16.6272 14.3516L16.6504 14.3556L16.674 14.3596L16.6972 14.3636L16.7204 14.3676L16.744 14.3712L16.7672 14.3748L16.7904 14.3784L16.814 14.3816L16.8372 14.3848L16.8604 14.3884L16.8836 14.3912L16.9072 14.3944L16.9304 14.3972L16.9536 14.4004L16.9772 14.4032L17.0004 14.4056L17.0236 14.4084L17.0472 14.4108L17.0704 14.4132L17.0936 14.4156L17.1172 14.418L17.1404 14.4204L17.1636 14.4224L17.1872 14.4244L17.2104 14.4264L17.2336 14.4284L17.2572 14.4304L17.2804 14.432L17.3036 14.4336L17.3268 14.4352L17.3504 14.4368L17.3736 14.4384L17.3968 14.4396L17.4204 14.4412L17.4436 14.4424L17.4668 14.4436L17.4904 14.4448L17.5136 14.446L17.5368 14.4468L17.5604 14.448L17.5836 14.4488L17.6068 14.4496L17.6304 14.4504L17.6536 14.4512L17.6768 14.4516L17.7004 14.452L17.7236 14.4528L17.7468 14.4532H17.77L17.7936 14.454H17.8168L17.84 14.4544H17.91L17.9336 14.4548H18.0036L18.0268 14.4544L18.05 14.454H18.0736L18.0968 14.4532H18.12L18.1436 14.4524L18.1668 14.452L18.19 14.4512L18.2132 14.4508L18.2368 14.45L18.26 14.4492L18.2832 14.4484L18.3068 14.4476L18.33 14.4468L18.3532 14.446L18.3768 14.4448L18.4 14.444L18.4112 14.4436L18.4232 14.4428L18.4468 14.442L18.47 14.4408L18.4932 14.4392L18.5168 14.438L18.54 14.4364L18.5632 14.4348L18.5864 14.4332L18.61 14.4316L18.6332 14.43L18.6564 14.428L18.68 14.426L18.7032 14.424L18.7264 14.422L18.75 14.42L18.7732 14.418L18.7964 14.4156L18.82 14.4132L18.8432 14.4108L18.8664 14.4084L18.89 14.406L18.9132 14.4032L18.9364 14.4008L18.96 14.398L18.9832 14.3952L19.0064 14.3924L19.0296 14.3896L19.0532 14.3868L19.0764 14.3836L19.0996 14.3808L19.1232 14.3776L19.1464 14.3744L19.1696 14.3712L19.1932 14.368L19.2164 14.3648L19.2396 14.3616L19.2632 14.358L19.2864 14.3548L19.3096 14.3508L19.3332 14.3476L19.3564 14.344L19.3796 14.34L19.4032 14.3368L19.4264 14.3328L19.4496 14.3288L19.4728 14.3252L19.4964 14.3212L19.5196 14.3172L19.5428 14.3132L19.5664 14.3092L19.5896 14.3052L19.6128 14.3012L19.6364 14.2972L19.6596 14.2932L19.6828 14.2884L19.7064 14.2844L19.7296 14.28L19.7528 14.2756L19.7764 14.2712L19.7996 14.2664L19.8228 14.2624L19.8464 14.2576L19.8696 14.2528L19.8928 14.248L19.916 14.2436L19.9396 14.2388L19.9628 14.234L19.986 14.2292L20.0096 14.224L20.0328 14.2192L20.056 14.214L20.0796 14.2092L20.1028 14.204L20.126 14.1988L20.1496 14.1936L20.1728 14.1884L20.196 14.1832L20.2196 14.1776L20.2428 14.1724L20.266 14.1668L20.2896 14.1612L20.3128 14.1552V13.1344L20.2896 13.146L20.266 13.1572L20.2428 13.1688L20.2196 13.18L20.196 13.1912L20.1728 13.2024L20.1496 13.2132L20.126 13.224L20.1028 13.2348L20.0796 13.2452L20.056 13.256L20.0328 13.2664L20.0096 13.2764L19.986 13.2864L19.9628 13.2964L19.9396 13.3064L19.916 13.3164L19.8928 13.326L19.8696 13.3356L19.8464 13.3448L19.8228 13.354L19.7996 13.3632L19.7764 13.372L19.7528 13.3812L19.7296 13.39L19.7064 13.3984L19.6828 13.4068L19.6596 13.4152L19.6364 13.4232L19.6128 13.4312L19.5896 13.4392L19.5664 13.4472L19.5428 13.4552L19.5196 13.4624L19.4964 13.47L19.4728 13.4772L19.4496 13.4844L19.4264 13.4916L19.4032 13.4984L19.3796 13.5052L19.3564 13.512L19.3332 13.5184L19.3096 13.5248L19.2864 13.5308L19.2632 13.5368L19.2396 13.5428L19.2164 13.5488L19.1932 13.5544L19.1696 13.56L19.1464 13.5656L19.1232 13.5708L19.0996 13.576L19.0764 13.5812L19.0532 13.586L19.0296 13.5908L19.0064 13.5956L18.9832 13.6L18.96 13.604L18.9364 13.6088L18.9132 13.6128L18.89 13.6168L18.8664 13.6208L18.8432 13.6248L18.82 13.628L18.7964 13.632L18.7732 13.6348L18.75 13.6384L18.7264 13.6416L18.7032 13.6444L18.68 13.6472L18.6564 13.65L18.6332 13.6528L18.61 13.6552L18.5864 13.6576L18.5632 13.66L18.54 13.662L18.5168 13.664L18.4932 13.666L18.4792 13.6672L18.47 13.6676L18.4468 13.6692L18.4232 13.6708L18.4 13.672L18.3768 13.6732L18.3532 13.6744L18.33 13.6752L18.3068 13.676H18.2832L18.26 13.6768H18.1668L18.1436 13.676L18.12 13.6752L18.0968 13.6744L18.0736 13.6736L18.05 13.672L18.0268 13.6708L18.0036 13.6692L17.98 13.6672L17.9568 13.6656L17.9336 13.6632L17.91 13.6608L17.8868 13.658L17.8636 13.6552L17.84 13.652L17.8168 13.6488L17.7936 13.6456L17.77 13.6416L17.7468 13.6376L17.7236 13.6336L17.7004 13.6292L17.6768 13.624L17.6536 13.6192L17.6304 13.614L17.6068 13.6084L17.5836 13.6024L17.5604 13.5964L17.5368 13.59C17.5291 13.5879 17.5213 13.5858 17.5136 13.5836L17.4904 13.5764C17.4747 13.5716 17.4591 13.5667 17.4436 13.5616L17.4204 13.5536L17.3968 13.5452L17.3736 13.5368L17.3504 13.5276L17.3268 13.5184L17.3036 13.5084L17.2804 13.4984L17.2572 13.4876L17.2336 13.4764C17.218 13.4689 17.2026 13.4612 17.1872 13.4532L17.1636 13.4408C17.1556 13.4368 17.148 13.432 17.1404 13.4276C17.1167 13.4141 17.0934 13.4001 17.0704 13.3856C17.0625 13.381 17.0547 13.376 17.0472 13.3708L17.0236 13.3548C17.0079 13.3439 16.9924 13.3327 16.9772 13.3212L16.9536 13.3032C16.9458 13.2971 16.9381 13.291 16.9304 13.2848L16.9072 13.2656C16.8831 13.2451 16.8598 13.2237 16.8372 13.2016C16.8292 13.1936 16.8212 13.1864 16.814 13.1784C16.7721 13.1357 16.733 13.0903 16.6972 13.0424C16.6431 12.9711 16.5962 12.8946 16.5572 12.814C16.5195 12.7373 16.4883 12.6575 16.464 12.5756C16.4446 12.5115 16.429 12.4463 16.4172 12.3804C16.3743 12.129 16.3743 11.8722 16.4172 11.6208C16.4338 11.5304 16.4572 11.4413 16.4872 11.3544C16.5131 11.2813 16.5442 11.2102 16.5804 11.1416C16.6267 11.0557 16.6815 10.9748 16.744 10.9C16.7869 10.8484 16.8337 10.8003 16.884 10.756C16.8916 10.7492 16.8992 10.742 16.9072 10.7356L16.9304 10.716C16.9606 10.6915 16.9917 10.6682 17.0236 10.646L17.0472 10.63L17.0704 10.6152C17.0858 10.6053 17.1014 10.5957 17.1172 10.5864L17.1404 10.5732L17.1636 10.56L17.1872 10.548C17.2026 10.5398 17.218 10.5318 17.2336 10.524L17.2572 10.5132L17.2804 10.5024L17.3036 10.4924L17.3268 10.4824L17.3504 10.4732L17.3736 10.464L17.3968 10.4556L17.4204 10.4472L17.4436 10.4392C17.4668 10.4314 17.4901 10.4241 17.5136 10.4172L17.5368 10.4108L17.5604 10.4044C17.568 10.402 17.5756 10.4004 17.5836 10.3984L17.6068 10.3924L17.6304 10.3868L17.6536 10.3816L17.6768 10.3768L17.7004 10.3716L17.7236 10.3676L17.7468 10.3632L17.77 10.3592L17.7936 10.3552L17.8168 10.352L17.84 10.3484L17.8636 10.3456L17.8868 10.3428L17.91 10.34L17.9336 10.3376L17.9568 10.3352L17.98 10.3336L18.0036 10.3316L18.0268 10.33L18.05 10.3284L18.0736 10.3272L18.0968 10.3264C18.1048 10.3264 18.1124 10.3256 18.12 10.3252L18.1436 10.3248L18.1668 10.3244L18.19 10.324H18.26L18.2832 10.3244L18.3068 10.3248L18.33 10.3256L18.3532 10.3264L18.3768 10.3276L18.4 10.3288L18.4232 10.33L18.4468 10.3316L18.47 10.3332L18.4792 10.3336L18.4932 10.3348L18.5168 10.3368L18.54 10.3388L18.5632 10.3408L18.5864 10.3428L18.61 10.3452L18.6332 10.348L18.6564 10.3504L18.68 10.3532L18.7032 10.356L18.7264 10.3588L18.75 10.362L18.7732 10.3652L18.7964 10.3688L18.82 10.372L18.8432 10.376L18.8664 10.3796L18.89 10.3836L18.9132 10.3876L18.9364 10.3916L18.96 10.3956L18.9832 10.3996L19.0064 10.4044L19.0296 10.4092L19.0532 10.414L19.0764 10.4188L19.0996 10.4236L19.1232 10.4288L19.1464 10.434L19.1696 10.4396L19.1932 10.4452L19.2164 10.4508L19.2396 10.4564L19.2632 10.4624L19.2864 10.4684L19.3096 10.4748L19.3332 10.4812L19.3564 10.4876L19.3796 10.4944L19.4032 10.5008L19.4264 10.508L19.4496 10.5148L19.4728 10.522L19.4964 10.5292L19.5196 10.5368L19.5428 10.5444L19.5664 10.5524L19.5896 10.56L19.6128 10.568L19.6364 10.576L19.6596 10.584L19.6828 10.5924L19.7064 10.6012L19.7296 10.6096L19.7528 10.6184L19.7764 10.6276L19.7996 10.6364L19.8228 10.6456L19.8464 10.6548L19.8696 10.6644L19.8928 10.674L19.916 10.6836L19.9396 10.6936L19.9628 10.7036L19.986 10.7136L20.0096 10.7236L20.0328 10.734L20.056 10.7444L20.0796 10.7552L20.1028 10.766L20.126 10.7768L20.1496 10.7876L20.1728 10.7988L20.196 10.8096L20.2196 10.8212L20.2428 10.8324L20.266 10.844L20.2896 10.8556L20.3128 10.8672V9.84519L20.2896 9.83959L20.266 9.83399L20.2428 9.82839L20.2196 9.82319L20.196 9.81759L20.1728 9.81239L20.1496 9.80719L20.126 9.80199L20.1028 9.79679L20.0796 9.79159L20.056 9.78639L20.0328 9.78159L20.0096 9.77679L19.986 9.77159L19.9628 9.76679L19.9396 9.76199L19.916 9.75719L19.8928 9.75279L19.8696 9.74799L19.8464 9.74319L19.8228 9.73879L19.7996 9.73439L19.7764 9.72959L19.7528 9.72559L19.7296 9.72079L19.7064 9.71679L19.6828 9.71239L19.6596 9.70799L19.6364 9.70399L19.6128 9.69999L19.5896 9.69559L19.5664 9.69159L19.5428 9.68759L19.5196 9.68359L19.4964 9.67959L19.4728 9.67559L19.4496 9.67159L19.4264 9.66799L19.4032 9.66399L19.3796 9.66039L19.3564 9.65679L19.3332 9.65319L19.3096 9.64959L19.2864 9.64639L19.2632 9.64279L19.2396 9.63959L19.2164 9.63599L19.1932 9.63279L19.1696 9.62959L19.1464 9.62639L19.1232 9.62319L19.0996 9.62039L19.0764 9.61719L19.0532 9.61439L19.0296 9.61119L19.0064 9.60839L18.9832 9.60559L18.96 9.60279L18.936 9.59999L18.9128 9.59719L18.8896 9.59479L18.866 9.59239L18.8428 9.58959L18.8196 9.58759L18.796 9.58519L18.7728 9.58279L18.7496 9.58079L18.726 9.57879L18.7028 9.57639L18.6796 9.57439L18.656 9.57279L18.6328 9.57079L18.6096 9.56919L18.586 9.56759L18.5628 9.56599L18.5396 9.56439L18.5164 9.56279L18.4928 9.56159L18.4696 9.56039L18.4464 9.55919L18.4228 9.55799L18.4108 9.55719H18.4L18.3768 9.55599L18.3532 9.55479L18.33 9.55399L18.3068 9.55319L18.2832 9.55239L18.26 9.55159L18.2368 9.55079L18.2132 9.54999L18.19 9.54959L18.1668 9.54879H18.1436L18.12 9.54799L18.0968 9.54759L18.0736 9.54719H18.05L18.0268 9.54639H17.8168L17.7936 9.54679L17.77 9.54719L17.7468 9.54759L17.7236 9.54799L17.7004 9.54879L17.6768 9.54919L17.6536 9.54999L17.6304 9.55079L17.6068 9.55119L17.5836 9.55199L17.5604 9.55319L17.5368 9.55399L17.5136 9.55519L17.4904 9.55599L17.4668 9.55719L17.4436 9.55839L17.4204 9.55959L17.3968 9.56119L17.3736 9.56239L17.3504 9.56399L17.3268 9.56559L17.3036 9.56719L17.2804 9.56879L17.2572 9.57079L17.2336 9.57239L17.2104 9.57439L17.1872 9.57639L17.1636 9.57839L17.1404 9.58079L17.1172 9.58279L17.0936 9.58519L17.0704 9.58759L17.0472 9.58999L17.0236 9.59239L17.0004 9.59519L16.9772 9.59799L16.9536 9.60079L16.9304 9.60359L16.9072 9.60639L16.8836 9.60959L16.8604 9.61279L16.8372 9.61599L16.814 9.61919L16.7904 9.62279L16.7672 9.62639L16.744 9.62959L16.7204 9.63359L16.6972 9.63759L16.674 9.64119L16.6504 9.64519L16.6272 9.64919L16.604 9.65319L16.5804 9.65799L16.5572 9.66199L16.534 9.66679L16.5104 9.67119L16.4872 9.67599L16.464 9.68079L16.4404 9.68599L16.4172 9.69079L16.394 9.69599L16.3708 9.70159L16.3472 9.70679L16.324 9.71239L16.3008 9.71799L16.2772 9.72399L16.254 9.72999L16.2308 9.73599L16.2072 9.74239L16.184 9.74839L16.1608 9.75519L16.1372 9.76159L16.114 9.76839L16.0908 9.77519L16.0672 9.78239L16.044 9.78959L16.0208 9.79719L15.9972 9.80439L15.974 9.81239L15.9508 9.82039L15.9276 9.82839L15.904 9.83639L15.8808 9.84479L15.8576 9.85319L15.834 9.86199L15.8108 9.87079L15.7876 9.87999L15.764 9.88959L15.7408 9.89879L15.7176 9.90879L15.694 9.91879L15.6708 9.92879L15.6476 9.93919L15.624 9.94959L15.6008 9.96039L15.5776 9.97159L15.5544 9.98279L15.5308 9.99439L15.5076 10.0064L15.4844 10.0184L15.4608 10.0304L15.4376 10.0432L15.4144 10.056L15.3908 10.0692L15.3676 10.0828L15.3444 10.0968L15.3208 10.1108L15.2976 10.1252L15.2744 10.14L15.2508 10.1552L15.2276 10.1708L15.2044 10.1868C15.1887 10.1976 15.1731 10.2085 15.1576 10.2196L15.1344 10.2368C15.1107 10.2545 15.0874 10.2726 15.0644 10.2912H15.064Z" fill="#E10238"/>
</svg>
