<svg width="36" height="24" viewBox="0 0 36 24" fill="none" xmlns="http://www.w3.org/2000/svg">
<rect width="36" height="24" fill="white"/>
<path d="M12.6657 22.3767V20.9888C12.6739 20.8721 12.657 20.7549 12.6163 20.6452C12.5756 20.5355 12.512 20.4358 12.4297 20.3526C12.3474 20.2694 12.2483 20.2047 12.139 20.1629C12.0298 20.121 11.9128 20.1029 11.796 20.1098C11.6431 20.0999 11.4904 20.1311 11.3537 20.2003C11.217 20.2694 11.1014 20.374 11.0188 20.5031C10.9436 20.3778 10.836 20.2752 10.7074 20.206C10.5787 20.1368 10.4338 20.1036 10.2879 20.1098C10.1607 20.1034 10.034 20.1304 9.92038 20.188C9.80679 20.2456 9.71021 20.3319 9.64021 20.4383V20.1653H9.15906V22.3767H9.64481V21.1507C9.63431 21.0751 9.64069 20.9981 9.66349 20.9252C9.6863 20.8523 9.72496 20.7853 9.77671 20.7292C9.82846 20.673 9.89201 20.629 9.96279 20.6003C10.0336 20.5716 10.1098 20.559 10.1861 20.5632C10.5053 20.5632 10.6672 20.7714 10.6672 21.1461V22.3767H11.153V21.1507C11.1433 21.0752 11.1502 20.9985 11.1733 20.926C11.1964 20.8534 11.2351 20.7868 11.2867 20.7308C11.3383 20.6748 11.4015 20.6308 11.4719 20.6019C11.5423 20.5729 11.6182 20.5597 11.6943 20.5632C12.0227 20.5632 12.18 20.7714 12.18 21.1461V22.3767H12.6657ZM15.3767 21.271V20.1653H14.8956V20.4337C14.8134 20.3278 14.7072 20.2432 14.5856 20.1869C14.4641 20.1305 14.3308 20.1041 14.197 20.1098C13.8989 20.1244 13.6178 20.2532 13.412 20.4693C13.2062 20.6855 13.0914 20.9725 13.0914 21.271C13.0914 21.5695 13.2062 21.8565 13.412 22.0727C13.6178 22.2889 13.8989 22.4176 14.197 22.4322C14.3308 22.4379 14.4641 22.4115 14.5856 22.3552C14.7072 22.2988 14.8134 22.2142 14.8956 22.1084V22.3767H15.3767V21.271ZM13.5864 21.271C13.5938 21.1405 13.6393 21.0151 13.7173 20.9101C13.7952 20.8052 13.9021 20.7253 14.0248 20.6804C14.1476 20.6355 14.2808 20.6275 14.408 20.6574C14.5352 20.6873 14.6509 20.7538 14.7408 20.8487C14.8307 20.9435 14.8909 21.0627 14.9139 21.1913C14.937 21.32 14.9218 21.4525 14.8704 21.5727C14.819 21.6929 14.7335 21.7953 14.6245 21.8675C14.5156 21.9397 14.3879 21.9784 14.2572 21.9788C14.1655 21.98 14.0747 21.9623 13.9903 21.9267C13.9059 21.891 13.8298 21.8383 13.7667 21.7718C13.7037 21.7053 13.6552 21.6265 13.6241 21.5403C13.5931 21.4541 13.5802 21.3624 13.5864 21.271ZM25.6717 20.1072C25.8341 20.1057 25.9953 20.1359 26.1462 20.1962C26.2868 20.2523 26.4151 20.3354 26.5237 20.4409C26.6306 20.5458 26.7154 20.671 26.7731 20.8092C26.8932 21.1053 26.8932 21.4367 26.7731 21.7328C26.7154 21.871 26.6306 21.9963 26.5237 22.1012C26.4151 22.2066 26.2868 22.2898 26.1462 22.3459C25.841 22.4645 25.5024 22.4645 25.1971 22.3459C25.0567 22.29 24.9288 22.2068 24.8207 22.1012C24.7145 21.996 24.6301 21.8708 24.5725 21.7328C24.4525 21.4366 24.4525 21.1054 24.5725 20.8092C24.6301 20.6712 24.7145 20.5461 24.8207 20.4409C24.9288 20.3353 25.0568 20.2521 25.1971 20.1962C25.348 20.1359 25.5092 20.1057 25.6717 20.1072ZM25.6717 20.5622C25.5776 20.5613 25.4842 20.579 25.3969 20.6141C25.3147 20.6471 25.24 20.6966 25.1776 20.7595C25.1147 20.8238 25.0652 20.9 25.0321 20.9836C24.9613 21.1687 24.9613 21.3734 25.0321 21.5585C25.0652 21.6421 25.1147 21.7182 25.1776 21.7825C25.24 21.8455 25.3147 21.895 25.3969 21.928C25.5736 21.9973 25.7698 21.9973 25.9464 21.928C26.029 21.8948 26.104 21.8453 26.167 21.7825C26.2304 21.7185 26.2803 21.6423 26.3136 21.5585C26.3845 21.3734 26.3845 21.1687 26.3136 20.9836C26.2803 20.8998 26.2304 20.8236 26.167 20.7595C26.1039 20.6968 26.0289 20.6473 25.9464 20.6141C25.8591 20.579 25.7658 20.5613 25.6717 20.5622ZM17.9947 21.271C17.9901 20.5817 17.5645 20.1098 16.9446 20.1098C16.6445 20.1256 16.3622 20.2569 16.1569 20.4763C15.9516 20.6957 15.8392 20.9861 15.8434 21.2866C15.8476 21.587 15.968 21.8742 16.1794 22.0878C16.3907 22.3014 16.6766 22.4248 16.977 22.4322C17.307 22.4438 17.6298 22.3334 17.8837 22.1222L17.6478 21.766C17.4651 21.9124 17.2388 21.9938 17.0047 21.9973C16.8457 22.0107 16.6878 21.9617 16.5643 21.8607C16.4408 21.7596 16.3615 21.6145 16.3432 21.4561H17.9855C17.9901 21.3959 17.9947 21.3358 17.9947 21.271ZM16.3478 21.0767C16.3563 20.9283 16.4225 20.789 16.5322 20.6887C16.642 20.5884 16.7867 20.5351 16.9353 20.5401C17.0807 20.5373 17.2212 20.5921 17.3261 20.6927C17.431 20.7933 17.4918 20.9314 17.4951 21.0767H16.3478ZM20.0209 20.7298C19.811 20.609 19.5738 20.5437 19.3316 20.5401C19.0679 20.5401 18.9106 20.6372 18.9106 20.7992C18.9106 20.9472 19.0772 20.9888 19.2854 21.0166L19.512 21.0489C19.9932 21.1183 20.2846 21.3219 20.2846 21.7105C20.2846 22.1315 19.9145 22.4322 19.2761 22.4322C18.9344 22.4417 18.5987 22.3411 18.3185 22.1453L18.5451 21.7707C18.7575 21.9281 19.0165 22.0096 19.2807 22.002C19.6092 22.002 19.785 21.9048 19.785 21.7336C19.785 21.6087 19.6601 21.5393 19.3964 21.5023L19.1697 21.47C18.6747 21.4005 18.4064 21.1785 18.4064 20.8176C18.4064 20.3781 18.7672 20.1098 19.327 20.1098C19.6437 20.0989 19.9568 20.1792 20.2291 20.3412L20.0209 20.7298ZM22.3328 20.6048H21.5463V21.6041C21.5463 21.8261 21.625 21.9742 21.8655 21.9742C22.0157 21.9692 22.1621 21.9263 22.2912 21.8493L22.4299 22.2611C22.2495 22.3735 22.0411 22.4329 21.8285 22.4322C21.2595 22.4322 21.0606 22.1269 21.0606 21.6133V20.6048H20.6118V20.1653H21.0606L21.0604 19.4946H21.5462L21.5463 20.1653H22.3328V20.6048ZM23.9978 20.1098C24.1145 20.1103 24.2303 20.1306 24.3402 20.17L24.1921 20.6234C24.0965 20.5853 23.9944 20.5664 23.8915 20.5678C23.5769 20.5678 23.4195 20.7714 23.4195 21.1368V22.3767H22.9384V20.1653H23.415V20.4337C23.474 20.3322 23.5593 20.2486 23.6619 20.1916C23.7645 20.1346 23.8805 20.1064 23.9978 20.1098ZM27.3287 22.0548C27.3586 22.0546 27.3883 22.0605 27.4158 22.0721C27.4424 22.0831 27.4665 22.0991 27.4871 22.1192C27.5074 22.1393 27.5237 22.1631 27.535 22.1894C27.5466 22.2164 27.5526 22.2454 27.5526 22.2748C27.5526 22.3041 27.5466 22.3331 27.535 22.3601C27.5236 22.3862 27.5074 22.41 27.4871 22.43C27.4665 22.4501 27.4423 22.4662 27.4158 22.4774C27.3883 22.4892 27.3586 22.4952 27.3287 22.495C27.2846 22.4954 27.2414 22.4829 27.2044 22.4589C27.1674 22.4349 27.1383 22.4005 27.1208 22.3601C27.1092 22.3331 27.1033 22.3041 27.1033 22.2748C27.1033 22.2454 27.1092 22.2164 27.1208 22.1894C27.1321 22.1632 27.1483 22.1394 27.1685 22.1192C27.189 22.099 27.2133 22.083 27.24 22.0721C27.2681 22.0604 27.2983 22.0546 27.3287 22.0548ZM27.3287 22.4464C27.3515 22.4466 27.3741 22.442 27.3951 22.4329C27.4152 22.4242 27.4335 22.4117 27.449 22.3963C27.4689 22.3764 27.4836 22.352 27.4918 22.3252C27.5001 22.2984 27.5016 22.2699 27.4963 22.2424C27.4909 22.2148 27.4789 22.189 27.4613 22.1671C27.4437 22.1453 27.4209 22.1281 27.3951 22.1171C27.3741 22.1082 27.3515 22.1037 27.3287 22.1039C27.3055 22.1037 27.2825 22.1082 27.261 22.1171C27.2406 22.1255 27.222 22.1379 27.2063 22.1535C27.1743 22.1858 27.1563 22.2294 27.1563 22.2749C27.1563 22.3203 27.1743 22.364 27.2063 22.3963C27.2224 22.4123 27.2415 22.4249 27.2625 22.4335C27.2835 22.4421 27.306 22.4465 27.3287 22.4464ZM27.3417 22.1718C27.3633 22.1704 27.3848 22.1766 27.4024 22.1894C27.4094 22.1952 27.4149 22.2025 27.4186 22.2107C27.4223 22.219 27.424 22.2281 27.4237 22.2371C27.4239 22.2449 27.4225 22.2526 27.4196 22.2598C27.4167 22.267 27.4123 22.2735 27.4067 22.2789C27.3933 22.2908 27.3763 22.2979 27.3584 22.2991L27.4253 22.3763H27.373L27.3109 22.2997H27.291V22.3763H27.2473V22.1718H27.3417ZM27.291 22.2101V22.2646H27.3411C27.3508 22.2651 27.3604 22.2627 27.3687 22.2578C27.372 22.2556 27.3748 22.2525 27.3766 22.2489C27.3783 22.2452 27.3792 22.2412 27.3789 22.2371C27.3791 22.2331 27.3783 22.2292 27.3765 22.2256C27.3747 22.2221 27.372 22.219 27.3687 22.2168C27.3603 22.212 27.3508 22.2097 27.3411 22.2101H27.291Z" fill="black"/>
<path d="M21.6486 3.28802H14.3518V16.4006H21.6486V3.28802Z" fill="#7375CF"/>
<path d="M14.8151 9.84431C14.814 8.58147 15.1001 7.33492 15.652 6.19903C16.2038 5.06313 17.0068 4.06767 18.0002 3.288C16.77 2.32103 15.2926 1.71968 13.7368 1.55269C12.1809 1.38571 10.6095 1.65982 9.20213 2.34369C7.79473 3.02757 6.60814 4.09362 5.77798 5.41999C4.94781 6.74637 4.50757 8.27955 4.50757 9.84431C4.50757 11.4091 4.94781 12.9422 5.77798 14.2686C6.60814 15.595 7.79473 16.661 9.20213 17.3449C10.6095 18.0288 12.1809 18.3029 13.7368 18.1359C15.2926 17.9689 16.77 17.3676 18.0002 16.4006C17.0068 15.6209 16.2038 14.6255 15.652 13.4896C15.1001 12.3537 14.814 11.1071 14.8151 9.84431Z" fill="#EB001B"/>
<path d="M30.6968 15.0118V14.7433H30.8051V14.6886H30.5294V14.7433H30.6377V15.0118H30.6968ZM31.2321 15.0118V14.6881H31.1476L31.0504 14.9107L30.9531 14.6881H30.8686V15.0118H30.9283V14.7676L31.0194 14.9781H31.0813L31.1724 14.7671V15.0118H31.2321Z" fill="#00A2E5"/>
<path d="M31.4925 9.8443C31.4925 11.409 31.0523 12.9422 30.2222 14.2686C29.3921 15.595 28.2055 16.661 26.7982 17.3449C25.3908 18.0288 23.8194 18.3029 22.2636 18.1359C20.7078 17.9689 19.2304 17.3676 18.0002 16.4006C18.9928 15.6202 19.7952 14.6245 20.3469 13.4888C20.8986 12.3531 21.1853 11.1069 21.1853 9.8443C21.1853 8.58166 20.8986 7.33551 20.3469 6.1998C19.7952 5.06408 18.9928 4.06845 18.0002 3.288C19.2304 2.32102 20.7078 1.71968 22.2636 1.55269C23.8194 1.38571 25.3908 1.65982 26.7982 2.34371C28.2055 3.02759 29.3921 4.09364 30.2222 5.42002C31.0523 6.7464 31.4925 8.27957 31.4925 9.8443Z" fill="#00A2E5"/>
</svg>
