<svg width="36" height="24" viewBox="0 0 36 24" fill="none" xmlns="http://www.w3.org/2000/svg">
<rect width="36" height="24" fill="white"/>
<path d="M21.7205 5.31451H14.2799V18.6855H21.7205V5.31451Z" fill="#FF5F00"/>
<path d="M14.7523 12C14.7512 10.7123 15.043 9.44117 15.6057 8.2829C16.1684 7.12463 16.9872 6.10955 18.0002 5.31452C16.7458 4.3285 15.2392 3.7153 13.6527 3.54503C12.0663 3.37475 10.4639 3.65425 9.02876 4.3516C7.59363 5.04896 6.38366 6.13602 5.53713 7.48853C4.69061 8.84103 4.2417 10.4044 4.2417 12C4.2417 13.5956 4.69061 15.159 5.53713 16.5115C6.38366 17.864 7.59363 18.9511 9.02876 19.6484C10.4639 20.3458 12.0663 20.6253 13.6527 20.455C15.2392 20.2847 16.7458 19.6715 18.0002 18.6855C16.9872 17.8905 16.1684 16.8754 15.6057 15.7171C15.043 14.5588 14.7512 13.2877 14.7523 12Z" fill="#EB001B"/>
<path d="M31.7583 12C31.7584 13.5956 31.3095 15.1589 30.463 16.5115C29.6166 17.864 28.4066 18.951 26.9715 19.6484C25.5364 20.3457 23.9341 20.6253 22.3476 20.455C20.7612 20.2847 19.2547 19.6715 18.0002 18.6855C19.0123 17.8897 19.8305 16.8744 20.3931 15.7163C20.9558 14.5582 21.2481 13.2875 21.2481 12C21.2481 10.7125 20.9558 9.44178 20.3931 8.28368C19.8305 7.12559 19.0123 6.11035 18.0002 5.31452C19.2547 4.32849 20.7612 3.7153 22.3476 3.54502C23.9341 3.37475 25.5364 3.65427 26.9715 4.35162C28.4066 5.04898 29.6166 6.13604 30.463 7.48855C31.3095 8.84106 31.7584 10.4044 31.7583 12Z" fill="#F79E1B"/>
<path d="M30.947 17.2693V16.9956H31.0574V16.9398H30.7762V16.9956H30.8867V17.2693H30.947ZM31.4927 17.2693V16.9393H31.4066L31.3075 17.1663L31.2083 16.9393H31.1221V17.2693H31.183V17.0204L31.2759 17.235H31.339L31.4319 17.0198V17.2693H31.4927Z" fill="#F79E1B"/>
</svg>
