<svg xmlns="http://www.w3.org/2000/svg" viewBox="0 0 100 60"><g fill="none" fill-rule="evenodd"><path fill="#FFF" d="M0 0h100v60H0z"/><g fill-rule="nonzero"><path fill="#253B80" d="M39.677 23.572h-4.688a.649.649 0 0 0-.644.544l-1.896 11.879a.385.385 0 0 0 .387.445h2.236a.64.64 0 0 0 .637-.543l.51-3.204a.645.645 0 0 1 .638-.538h1.487c3.086 0 4.87-1.478 5.33-4.401.204-1.277.008-2.285-.604-2.99-.663-.774-1.844-1.177-3.417-1.177l.024-.015zm.54 4.339c-.254 1.663-1.54 1.663-2.784 1.663h-.707l.496-3.106a.377.377 0 0 1 .383-.319h.323c.841 0 1.64 0 2.057.479.246.286.323.714.23 1.294l.003-.011zm13.473-.054h-2.244a.39.39 0 0 0-.387.326l-.1.621-.152-.226c-.485-.698-1.564-.93-2.652-.93-2.474 0-4.599 1.857-5.007 4.461-.212 1.3.094 2.543.842 3.41.688.796 1.666 1.128 2.83 1.128 1.998 0 3.111-1.27 3.111-1.27l-.093.616a.388.388 0 0 0 .382.447h2.023a.65.65 0 0 0 .646-.543l1.216-7.594a.383.383 0 0 0-.383-.445l-.032-.001zm-3.128 4.318c-.218 1.268-1.236 2.118-2.533 2.118-.653 0-1.173-.207-1.508-.598-.34-.389-.459-.94-.357-1.558.204-1.26 1.233-2.142 2.516-2.142.638 0 1.156.21 1.496.605.34.394.476.949.383 1.57l.003.005zm15.085-4.318H63.39a.655.655 0 0 0-.539.283l-3.11 4.536-1.318-4.351a.647.647 0 0 0-.62-.454h-2.22c-.263 0-.45.26-.365.513l2.49 7.207-2.337 3.259a.39.39 0 0 0 .323.613h2.253c.212 0 .416-.1.535-.277l7.489-10.71c.178-.252-.009-.605-.323-.605l-.001-.014z"/><path fill="#179BD7" d="M73.115 23.572h-4.688c-.32 0-.593.23-.643.544l-1.896 11.879a.385.385 0 0 0 .385.445h2.405a.45.45 0 0 0 .45-.38l.539-3.368a.642.642 0 0 1 .637-.543h1.48c3.085 0 4.87-1.477 5.337-4.404.204-1.277.009-2.285-.603-2.99-.672-.773-1.853-1.176-3.417-1.176l.014-.007zm.542 4.339c-.255 1.663-1.541 1.663-2.785 1.663h-.707l.497-3.106a.385.385 0 0 1 .385-.319h.325c.846 0 1.645 0 2.057.479.246.286.321.714.228 1.294v-.011zm13.472-.054h-2.244a.388.388 0 0 0-.386.326l-.102.621-.161-.226c-.485-.698-1.573-.93-2.652-.93-2.482 0-4.599 1.857-5.015 4.461-.213 1.3.085 2.543.833 3.41.68.796 1.657 1.128 2.822 1.128 1.997 0 3.11-1.27 3.11-1.27l-.101.616a.384.384 0 0 0 .382.447h2.023c.315 0 .587-.23.638-.543l1.215-7.594a.394.394 0 0 0-.39-.445l.028-.001zM84 32.175c-.216 1.268-1.235 2.118-2.533 2.118-.65 0-1.173-.207-1.508-.598-.331-.389-.456-.94-.351-1.558a2.508 2.508 0 0 1 2.516-2.142c.637 0 1.156.21 1.496.605.344.394.479.949.38 1.57v.005zm5.776-8.278l-1.924 12.098a.386.386 0 0 0 .385.445h1.934a.65.65 0 0 0 .646-.543l1.896-11.88a.382.382 0 0 0-.383-.445h-2.167a.386.386 0 0 0-.383.326h-.004z"/><path fill="#253B80" d="M12.981 38.748l.357-2.25-.797-.018H8.728l2.65-16.605a.216.216 0 0 1 .216-.18h6.428c2.142 0 3.613.436 4.378 1.304.365.407.595.832.705 1.299.12.49.12 1.075.009 1.79l-.009.053v.458l.366.201c.306.16.544.342.73.55.307.348.51.79.596 1.313.093.54.06 1.18-.085 1.905-.162.84-.425 1.563-.79 2.16a4.389 4.389 0 0 1-1.25 1.36 5.207 5.207 0 0 1-1.683.756c-.62.16-1.326.244-2.108.244h-.502c-.357 0-.705.126-.977.36-.272.236-.45.555-.51.9l-.034.201-.63 3.965-.025.151c-.008.05-.017.076-.034.084a.097.097 0 0 1-.068.025h-3.12v-.026z"/><path fill="#179BD7" d="M23.799 24.194c-.019.12-.04.245-.066.373-.848 4.3-3.748 5.787-7.454 5.787h-1.887a.914.914 0 0 0-.904.768l-.966 6.056-.274 1.716c-.046.29.18.552.476.552h3.346a.803.803 0 0 0 .796-.67l.034-.169.629-3.951.04-.217a.802.802 0 0 1 .795-.672h.5c3.247 0 5.78-1.302 6.528-5.065.314-1.57.153-2.885-.672-3.808a3.082 3.082 0 0 0-.918-.697l-.003-.003z"/><path fill="#222D65" d="M22.912 23.844a6.442 6.442 0 0 0-.824-.18 10.54 10.54 0 0 0-1.664-.12h-5.04a.801.801 0 0 0-.797.663l-1.071 6.712-.034.193a.91.91 0 0 1 .9-.773h1.888c3.706 0 6.604-1.487 7.454-5.787.026-.126.043-.252.06-.378a4.325 4.325 0 0 0-.697-.294l-.187-.06.012.024z"/><path fill="#253B80" d="M14.59 24.216a.796.796 0 0 1 .787-.672h5.04c.596 0 1.148.039 1.658.12a6.584 6.584 0 0 1 .824.18l.188.06c.246.081.476.178.697.29.246-1.59-.009-2.671-.876-3.653C21.965 19.462 20.24 19 18.021 19h-6.428a.913.913 0 0 0-.906.768L8.009 36.543a.548.548 0 0 0 .543.632h3.97l.998-6.25 1.068-6.709h.002z"/></g></g></svg>
