<svg width="36" height="24" viewBox="0 0 36 24" fill="none" xmlns="http://www.w3.org/2000/svg">
<rect width="36" height="24" fill="white"/>
<path d="M8.26709 1.99103H16.2546C17.3696 1.99103 18.0631 2.89984 17.8029 4.01852L14.0842 19.9846C13.8218 21.0994 12.7054 22.0089 11.5896 22.0089H3.60292C2.4895 22.0089 1.79446 21.0994 2.05456 19.9846L5.77487 4.01852C6.03498 2.89984 7.15074 1.99103 8.26709 1.99103Z" fill="#FF0033"/>
<path d="M15.592 1.99103H24.7774C25.8922 1.99103 25.3896 2.89984 25.1273 4.01852L21.4091 19.9846C21.1483 21.0994 21.2296 22.0089 20.1125 22.0089H10.9271C9.80996 22.0089 9.11862 21.0994 9.38106 19.9846L13.099 4.01852C13.363 2.89984 14.4765 1.99103 15.592 1.99103Z" fill="#003366"/>
<path d="M24.4093 1.99103H32.3968C33.5133 1.99103 34.2068 2.89984 33.9446 4.01852L30.2264 19.9846C29.9639 21.0994 28.8468 22.0089 27.7305 22.0089H19.7467C18.6295 22.0089 17.9366 21.0994 18.1983 19.9846L21.9171 4.01852C22.1772 2.89984 23.2922 1.99103 24.4093 1.99103Z" fill="#006666"/>
<path d="M10.3544 7.10827C9.53302 7.11664 9.29044 7.10827 9.21295 7.08997C9.18317 7.23151 8.62889 9.78836 8.62733 9.7905C8.50799 10.3078 8.42115 10.6765 8.1262 10.9146C7.95877 11.0531 7.7633 11.1198 7.53668 11.1198C7.17242 11.1198 6.96021 10.939 6.92458 10.5959L6.91777 10.4781C6.91777 10.4781 7.02874 9.78524 7.02874 9.78135C7.02874 9.78135 7.61047 7.45131 7.71463 7.14331C7.72008 7.12579 7.72164 7.11664 7.723 7.10827C6.59069 7.1182 6.38996 7.10827 6.37614 7.08997C6.36855 7.11508 6.34051 7.25954 6.34051 7.25954L5.74652 9.8857L5.69551 10.1084L5.5968 10.837C5.5968 11.0531 5.63924 11.2294 5.72374 11.3786C5.99436 11.8515 6.7663 11.9223 7.20298 11.9223C7.76564 11.9223 8.29344 11.8028 8.65011 11.5846C9.26922 11.2187 9.4312 10.6469 9.57566 10.1388L9.64263 9.87811C9.64263 9.87811 10.2419 7.45812 10.3437 7.14331C10.3476 7.12579 10.3492 7.11664 10.3544 7.10827ZM12.3933 9.06049C12.2489 9.06049 11.9849 9.09554 11.7477 9.21177C11.6617 9.25596 11.5803 9.30697 11.4945 9.35778L11.5719 9.07801L11.5295 9.0309C11.0266 9.13272 10.9141 9.14635 10.4496 9.21177L10.4106 9.23766C10.3567 9.68486 10.3088 10.0211 10.1089 10.9001C10.0327 11.2241 9.95369 11.5511 9.87445 11.8743L9.89586 11.9154C10.3719 11.8903 10.5163 11.8903 10.9301 11.8971L10.9635 11.8607C11.0161 11.5914 11.0229 11.5284 11.1393 10.983C11.194 10.7245 11.3081 10.1564 11.3644 9.95411C11.4678 9.90622 11.5698 9.85911 11.6671 9.85911C11.899 9.85911 11.8708 10.0614 11.8618 10.142C11.8519 10.2773 11.7674 10.7192 11.6808 11.0987L11.6229 11.3436C11.5826 11.5245 11.5385 11.7003 11.4982 11.8796L11.5157 11.9154C11.9849 11.8903 12.128 11.8903 12.5286 11.8971L12.5758 11.8607C12.6482 11.4402 12.6694 11.3276 12.7979 10.7153L12.8625 10.434C12.9881 9.88344 13.0512 9.60426 12.9562 9.37686C12.8557 9.12201 12.6147 9.06049 12.3933 9.06049ZM14.671 9.63695C14.4216 9.68484 14.2626 9.71677 14.1045 9.73741C13.9478 9.76252 13.7949 9.7853 13.5539 9.81879L13.5348 9.83611L13.5173 9.84994C13.4922 10.0294 13.4747 10.1846 13.4414 10.367C13.4132 10.5557 13.3697 10.77 13.2991 11.078C13.2444 11.3138 13.2161 11.396 13.185 11.4789C13.1546 11.5618 13.1211 11.6424 13.0596 11.8743L13.074 11.8957L13.0861 11.9154C13.3113 11.9047 13.4587 11.8971 13.6102 11.8957C13.7615 11.8903 13.9182 11.8957 14.1608 11.8971L14.182 11.8798L14.2048 11.8607C14.2398 11.6516 14.2451 11.5953 14.2665 11.4933C14.2877 11.3839 14.3243 11.2324 14.414 10.8279C14.4565 10.6378 14.5038 10.4484 14.5478 10.2545C14.5936 10.0614 14.6414 9.87116 14.687 9.68114L14.6802 9.65817L14.671 9.63695ZM14.6764 8.85971C14.4497 8.72596 14.052 8.7684 13.7843 8.95316C13.5174 9.13422 13.487 9.39121 13.7128 9.52671C13.9356 9.65677 14.3349 9.61802 14.6002 9.43171C14.8666 9.24675 14.8999 8.9921 14.6764 8.85971ZM16.0469 11.9573C16.5054 11.9573 16.9753 11.831 17.3291 11.456C17.6013 11.1519 17.7261 10.6994 17.7693 10.5131C17.91 9.89555 17.8004 9.60722 17.6628 9.43161C17.4537 9.16391 17.0842 9.07805 16.7008 9.07805C16.4703 9.07805 15.9213 9.10083 15.4924 9.49624C15.1844 9.78146 15.0421 10.1685 14.9562 10.5396C14.8696 10.9177 14.7699 11.5983 15.3958 11.8516C15.589 11.9345 15.8674 11.9573 16.0469 11.9573ZM16.011 10.5678C16.1168 10.1002 16.2416 9.70768 16.5601 9.70768C16.8097 9.70768 16.8278 9.99971 16.7168 10.4689C16.6969 10.5731 16.6058 10.9603 16.4826 11.1252C16.3965 11.2469 16.2947 11.3207 16.1822 11.3207C16.1487 11.3207 15.9495 11.3207 15.9464 11.0249C15.9448 10.8789 15.9746 10.7298 16.011 10.5678ZM18.9154 11.8972L18.9512 11.8608C19.002 11.5915 19.0104 11.5282 19.123 10.9831C19.1792 10.7246 19.2956 10.1565 19.3503 9.95417C19.4539 9.90608 19.5542 9.85897 19.6546 9.85897C19.885 9.85897 19.8569 10.0613 19.8478 10.1419C19.8394 10.2774 19.7549 10.7191 19.6667 11.0986L19.612 11.3435C19.5702 11.5245 19.5246 11.7001 19.4843 11.8796L19.5018 11.9155C19.9726 11.8904 20.1102 11.8904 20.5132 11.8972L20.5619 11.8608C20.6326 11.44 20.6516 11.3275 20.784 10.7154L20.8471 10.4339C20.9733 9.88331 21.0371 9.60432 20.9437 9.37692C20.8403 9.12207 20.5977 9.06055 20.3795 9.06055C20.2348 9.06055 19.9695 9.0954 19.7337 9.21182C19.6494 9.25602 19.5649 9.30683 19.482 9.35784L19.5542 9.07807L19.5154 9.03076C19.0128 9.13278 18.8979 9.14641 18.4339 9.21182L18.3983 9.23772C18.3421 9.68492 18.2963 10.021 18.0964 10.9002C18.0202 11.2241 17.9412 11.5512 17.8621 11.8744L17.8834 11.9155C18.3602 11.8904 18.5025 11.8904 18.9154 11.8972ZM22.3742 11.9154C22.4037 11.7709 22.5796 10.9147 22.5811 10.9147C22.5811 10.9147 22.7308 10.2864 22.74 10.2636C22.74 10.2636 22.7871 10.1982 22.8342 10.1723H22.9035C23.5575 10.1723 24.2959 10.1723 24.8747 9.74654C25.2686 9.4545 25.5379 9.02327 25.658 8.49917C25.6891 8.37067 25.7121 8.21784 25.7121 8.06501C25.7121 7.86428 25.6718 7.6657 25.5554 7.51053C25.2602 7.0976 24.6725 7.09001 23.994 7.08689C23.9918 7.08689 23.6595 7.09001 23.6595 7.09001C22.791 7.10071 22.4427 7.0976 22.2996 7.08008C22.2875 7.14335 22.2647 7.25588 22.2647 7.25588C22.2647 7.25588 21.9536 8.69775 21.9536 8.70008C21.9536 8.70008 21.2091 11.7657 21.1741 11.9101C21.9324 11.901 22.2433 11.901 22.3742 11.9154ZM22.9506 9.35404C22.9506 9.35404 23.2814 7.9151 23.2799 7.92055L23.2906 7.84676L23.2952 7.7905L23.4274 7.80413C23.4274 7.80413 24.1096 7.86273 24.1256 7.86428C24.3948 7.96844 24.5058 8.23692 24.4283 8.58736C24.3576 8.90762 24.1499 9.17688 23.883 9.30693C23.6632 9.41712 23.3939 9.42627 23.1165 9.42627H22.937L22.9506 9.35404ZM25.0101 10.5945C24.9227 10.9671 24.8223 11.6477 25.4451 11.8903C25.6436 11.9748 25.8216 11.9999 26.0025 11.9908C26.1934 11.9805 26.3704 11.8847 26.5343 11.7468C26.5196 11.8035 26.5048 11.8601 26.49 11.917L26.5182 11.9534C26.9662 11.9345 27.1052 11.9345 27.5905 11.9382L27.6345 11.9047C27.7054 11.4881 27.7722 11.0835 27.9564 10.2865C28.0461 9.90468 28.1357 9.5266 28.2278 9.14637L28.2133 9.10451C27.7122 9.19738 27.5783 9.21724 27.0962 9.28557L27.0596 9.31536C27.0548 9.3541 27.0497 9.39129 27.045 9.42847C26.9701 9.30738 26.8614 9.204 26.6938 9.13956C26.4794 9.05525 25.976 9.16389 25.5432 9.55794C25.2391 9.83927 25.0931 10.2248 25.0101 10.5945ZM26.0626 10.6172C26.1699 10.158 26.2931 9.76937 26.6124 9.76937C26.8143 9.76937 26.9206 9.95569 26.899 10.2734C26.8819 10.3527 26.8634 10.4362 26.8414 10.5306C26.8094 10.6671 26.7748 10.8024 26.7411 10.9379C26.7068 11.0306 26.6669 11.118 26.6231 11.1762C26.541 11.2926 26.3455 11.3648 26.233 11.3648C26.201 11.3648 26.004 11.3648 25.9972 11.0744C25.9956 10.9297 26.0254 10.7808 26.0626 10.6172ZM31.5588 9.10079L31.52 9.0566C31.0242 9.15706 30.9344 9.17302 30.4788 9.23454L30.4454 9.26803C30.4438 9.27348 30.4424 9.28185 30.4401 9.28945L30.4385 9.28185C30.0994 10.0643 30.1093 9.89551 29.8333 10.5115C29.8317 10.4835 29.8317 10.466 29.8301 10.4362L29.761 9.10079L29.7176 9.0566C29.1982 9.15706 29.1859 9.17302 28.7062 9.23454L28.6688 9.26803C28.6636 9.28399 28.6636 9.30152 28.6604 9.3206L28.6636 9.32741C28.7235 9.63385 28.7091 9.56552 28.7693 10.0491C28.7973 10.2864 28.8347 10.5251 28.8627 10.7595C28.91 11.1518 28.9365 11.345 28.9943 11.9436C28.6704 12.4783 28.5937 12.6805 28.2818 13.1497L28.2839 13.1544L28.0643 13.5017C28.0392 13.5383 28.0164 13.5635 27.9845 13.5742C27.9494 13.5915 27.9039 13.5946 27.8406 13.5946H27.7189L27.5381 14.1962L28.1585 14.2069C28.5228 14.2053 28.7518 14.035 28.875 13.806L29.2652 13.1375H29.2589L29.3 13.0904C29.5624 12.5254 31.5588 9.10079 31.5588 9.10079ZM25.0101 17.0018H24.7469L25.7211 13.7795H26.0443L26.1469 13.4475L26.1568 13.8166C26.1448 14.0448 26.3243 14.2471 26.7958 14.2136H27.3411L27.5288 13.5931H27.3236C27.2056 13.5931 27.1509 13.5634 27.1577 13.4995L27.1478 13.1239H26.1379V13.1259C25.8114 13.1327 24.8364 13.1572 24.639 13.2098C24.4001 13.2713 24.1484 13.4524 24.1484 13.4524L24.2473 13.12H23.3027L23.1059 13.7795L22.1186 17.051H21.927L21.7391 17.667H23.6206L23.5575 17.8724H24.4846L24.5462 17.667H24.8063L25.0101 17.0018ZM24.2382 14.4342C24.0869 14.4761 23.8054 14.603 23.8054 14.603L24.0557 13.7795H24.8063L24.6252 14.3795C24.6252 14.3795 24.3933 14.3931 24.2382 14.4342ZM24.2526 15.6107C24.2526 15.6107 24.0168 15.6403 23.8616 15.6753C23.7088 15.7217 23.4222 15.8677 23.4222 15.8677L23.6808 15.0107H24.4352L24.2526 15.6107ZM23.832 17.0093H23.0792L23.2974 16.2861H24.048L23.832 17.0093ZM25.6451 15.0107H26.7303L26.5744 15.5157H25.4748L25.3097 16.0678H26.2718L25.5433 17.0936C25.4923 17.169 25.4465 17.1957 25.3957 17.2169C25.3447 17.2428 25.2777 17.2732 25.2002 17.2732H24.9333L24.7499 17.8779H25.4481C25.811 17.8779 26.0253 17.7128 26.1836 17.4961L26.6832 16.8123L26.7905 17.5066C26.8132 17.6366 26.9067 17.7128 26.97 17.7424C27.0399 17.7774 27.1121 17.8376 27.2141 17.8465C27.3235 17.8512 27.4026 17.8549 27.4551 17.8549H27.7982L28.0042 17.1781H27.8688C27.7912 17.1781 27.6574 17.1651 27.6346 17.1408C27.6119 17.1112 27.6119 17.0656 27.5996 16.9963L27.4908 16.3005H27.0451L27.2406 16.0678H28.338L28.5068 15.5157H27.4908L27.649 15.0107H28.662L28.8499 14.3879H25.8299L25.6451 15.0107ZM16.4795 17.15L16.7328 16.3074H17.7738L17.964 15.6807H16.922L17.0811 15.162H18.0993L18.288 14.5552H15.7403L15.5555 15.162H16.1343L15.9799 15.6807H15.3996L15.2072 16.3181H15.7858L15.4482 17.4329C15.4027 17.5804 15.4697 17.6367 15.5121 17.7052C15.5555 17.772 15.5995 17.8162 15.6984 17.8413C15.8004 17.8641 15.8703 17.8777 15.9653 17.8777H17.1389L17.348 17.1835L16.8278 17.2549C16.7273 17.2549 16.4491 17.2428 16.4795 17.15ZM16.5989 13.1163L16.3351 13.593C16.2786 13.6972 16.2278 13.7618 16.1821 13.7916C16.1418 13.8167 16.062 13.8273 15.9463 13.8273H15.8087L15.6247 14.4372H16.0818C16.3016 14.4372 16.4704 14.3566 16.551 14.3163C16.6376 14.27 16.6604 14.2965 16.7274 14.2318L16.8818 14.0981H18.3092L18.4987 13.463H17.4538L17.6362 13.1163H16.5989ZM18.7063 17.1622C18.682 17.1272 18.6995 17.0655 18.7367 16.937L19.1268 15.6456H20.5148C20.717 15.6427 20.8631 15.6403 20.9581 15.6335C21.0601 15.6228 21.1711 15.5864 21.292 15.521C21.4168 15.4525 21.4806 15.3802 21.5345 15.2973C21.5947 15.2145 21.6913 15.0335 21.7742 14.7543L22.2646 13.1201L20.8243 13.1285C20.8243 13.1285 20.3808 13.1939 20.1855 13.2661C19.9885 13.3467 19.707 13.5718 19.707 13.5718L19.8371 13.1238H18.9473L17.7017 17.2549C17.6575 17.4153 17.6279 17.5317 17.6211 17.6016C17.6188 17.677 17.7161 17.7515 17.7792 17.8078C17.8538 17.8641 17.9639 17.8549 18.0697 17.8641C18.1808 17.8724 18.3389 17.8777 18.5572 17.8777H19.2409L19.4508 17.169L18.8387 17.2269C18.7733 17.2269 18.726 17.1918 18.7063 17.1622ZM19.3786 14.7734H20.8364L20.7437 15.0639C20.7307 15.0707 20.6995 15.0495 20.5512 15.067H19.2888L19.3786 14.7734ZM19.6706 13.7992H21.1407L21.035 14.149C21.035 14.149 20.3421 14.1422 20.2311 14.1626C19.7428 14.2471 19.4576 14.508 19.4576 14.508L19.6706 13.7992ZM20.7763 16.0366C20.7643 16.08 20.7452 16.1065 20.7185 16.1263C20.6889 16.1454 20.641 16.1522 20.5696 16.1522H20.3619L20.3741 15.7985H19.5101L19.475 17.5279C19.4737 17.6527 19.4858 17.7249 19.5771 17.7827C19.6684 17.855 19.9497 17.8641 20.3284 17.8641H20.8698L21.0653 17.2168L20.5939 17.2427L20.4372 17.2518C20.4158 17.2427 20.3953 17.2343 20.3726 17.2115C20.3527 17.1919 20.3192 17.2039 20.3247 17.0791L20.3284 16.6358L20.8227 16.6154C21.0896 16.6154 21.2037 16.5286 21.301 16.4458C21.3939 16.3666 21.4243 16.2755 21.4593 16.1522L21.5423 15.7597H20.863L20.7763 16.0366Z" fill="#FEFEFE"/>
</svg>
