<svg width="36" height="24" viewBox="0 0 36 24" fill="none" xmlns="http://www.w3.org/2000/svg">
<rect width="36" height="24" fill="white"/>
<path fill-rule="evenodd" clip-rule="evenodd" d="M10.0004 17.0273H7.23099L5.15426 9.1044C5.05569 8.73995 4.84639 8.41775 4.53853 8.2659C3.77022 7.88428 2.92359 7.58057 2 7.42739V7.12236H6.46133C7.07706 7.12236 7.53886 7.58057 7.61582 8.11272L8.69335 13.8277L11.4614 7.12236H14.1539L10.0004 17.0273ZM15.6926 17.0273H13.0771L15.2308 7.12236H17.8463L15.6926 17.0273ZM21.2266 9.86595C21.3035 9.33247 21.7653 9.02744 22.3041 9.02744C23.1507 8.95086 24.073 9.10403 24.8426 9.48433L25.3044 7.35176C24.5348 7.04673 23.6881 6.89355 22.9198 6.89355C20.3813 6.89355 18.5341 8.26553 18.5341 10.1697C18.5341 11.6182 19.8425 12.3788 20.7661 12.837C21.7653 13.2939 22.1502 13.5989 22.0732 14.0558C22.0732 14.7411 21.3035 15.0462 20.5352 15.0462C19.6116 15.0462 18.688 14.8177 17.8428 14.4361L17.381 16.57C18.3046 16.9503 19.3038 17.1035 20.2274 17.1035C23.0738 17.1787 24.8426 15.8081 24.8426 13.7508C24.8426 11.16 21.2266 11.0082 21.2266 9.86595ZM34 17.0273L31.9233 7.12236H29.6926C29.2308 7.12236 28.769 7.42739 28.6151 7.88428L24.7695 17.0273H27.4619L27.9994 15.58H31.3075L31.6154 17.0273H34ZM30.0779 9.78975L30.8462 13.5227H28.6925L30.0779 9.78975Z" fill="#1334CB"/>
</svg>
