<svg width="36" height="24" viewBox="0 0 36 24" fill="none" xmlns="http://www.w3.org/2000/svg">
<rect width="36" height="24" fill="white"/>
<path d="M17.8448 4.72306L15.7067 14.7178H13.121L15.259 4.72306H17.8448ZM28.7227 11.1767L30.0845 7.42339L30.8666 11.1767H28.7227ZM31.6093 14.7178H34L31.9113 4.72306H29.7055C29.2079 4.72306 28.7898 5.01164 28.6042 5.45577L24.7244 14.7178H27.4398L27.9783 13.2249H31.296L31.6093 14.7178ZM24.859 11.4546C24.87 8.81711 21.2124 8.67089 21.2364 7.49227C21.2451 7.13422 21.5863 6.75275 22.3334 6.65512C22.7033 6.60742 23.7255 6.5692 24.8833 7.10266L25.3364 4.98201C24.7143 4.75713 23.9136 4.54069 22.9178 4.54069C20.3616 4.54069 18.5635 5.89827 18.5489 7.84396C18.5323 9.28331 19.8333 10.0855 20.812 10.5647C21.8198 11.0543 22.1578 11.369 22.1532 11.8065C22.1461 12.4771 21.3482 12.774 20.6066 12.7849C19.3061 12.8055 18.5521 12.4336 17.9507 12.1534L17.4814 14.3443C18.0864 14.6216 19.2015 14.8625 20.3564 14.8746C23.0738 14.8746 24.851 13.5326 24.859 11.4546ZM14.1497 4.72306L9.96026 14.7178H7.22675L5.16505 6.74119C5.04002 6.25084 4.93158 6.07056 4.55115 5.86331C3.92925 5.52569 2.90263 5.20985 2 5.01312L2.06103 4.72306H6.46144C7.02142 4.72306 7.52584 5.09593 7.65384 5.74153L8.74328 11.5256L11.4328 4.72306H14.1497Z" fill="#1334CB"/>
<path d="M19.4098 19.4095V16.7072H21.0985V16.9952H19.7547V17.8593H20.8248V18.1438H19.7547V19.1215H21.0985V19.4095H19.4098Z" fill="#1334CB"/>
<path d="M21.9553 19.4094H21.6389V16.6004H21.9553V19.4094Z" fill="#1334CB"/>
<path d="M23.3849 17.5926C23.2071 17.5926 23.0637 17.6472 22.9547 17.7561C22.8455 17.8653 22.7792 18.0168 22.7556 18.2113H23.968V18.1758C23.968 18.0573 23.9501 17.9546 23.9147 17.8681C23.8791 17.7816 23.8193 17.714 23.7351 17.6654C23.651 17.617 23.5342 17.5926 23.3849 17.5926ZM23.4631 19.2032C23.6431 19.2032 23.7895 19.1814 23.9022 19.1375C24.0148 19.0937 24.1161 19.0349 24.2062 18.9614H24.2133L24.1847 19.2495C24.1256 19.2993 24.0332 19.3467 23.9076 19.3917C23.7819 19.4366 23.6255 19.4593 23.4382 19.4593C23.2343 19.4593 23.056 19.4141 22.9032 19.324C22.7503 19.234 22.6312 19.1095 22.5458 18.9507C22.4605 18.7921 22.4178 18.6107 22.4178 18.4067C22.4178 18.2029 22.4599 18.0216 22.5441 17.8628C22.6282 17.7041 22.7432 17.5789 22.8889 17.4877C23.0347 17.3966 23.1987 17.3508 23.3814 17.3508C23.5922 17.3508 23.7636 17.3881 23.8951 17.4628C24.0267 17.5374 24.1225 17.6419 24.1831 17.7757C24.2435 17.9097 24.2738 18.0654 24.2738 18.2433C24.2738 18.267 24.2724 18.2953 24.2702 18.3287C24.2678 18.3617 24.2643 18.3915 24.2595 18.4174H22.7414C22.7414 18.4199 22.7418 18.4223 22.7432 18.4245C22.7444 18.427 22.7438 18.4293 22.7414 18.4316C22.7461 18.671 22.8125 18.8596 22.9405 18.9969C23.0685 19.1344 23.2427 19.2032 23.4631 19.2032Z" fill="#1334CB"/>
<path d="M24.6078 18.4068C24.6078 18.2029 24.6493 18.0216 24.7322 17.8628C24.8152 17.7041 24.9325 17.5789 25.0842 17.4877C25.2359 17.3966 25.4135 17.3508 25.6175 17.3508C25.7954 17.3508 25.9369 17.3711 26.0425 17.4113C26.1479 17.4517 26.2255 17.4944 26.2753 17.5394L26.3074 17.8735H26.3002C26.2125 17.7906 26.1159 17.7265 26.0104 17.6815C25.9049 17.6366 25.7799 17.6139 25.6354 17.6139C25.4978 17.6139 25.3762 17.6453 25.271 17.7081C25.1654 17.7709 25.0824 17.8616 25.022 17.9801C24.9617 18.0988 24.9315 18.241 24.9315 18.4068C24.9315 18.6558 24.9983 18.8488 25.1322 18.9863C25.2661 19.1239 25.4398 19.1927 25.6532 19.1927C25.7669 19.1927 25.863 19.1824 25.9411 19.1624C26.0193 19.1423 26.0886 19.1137 26.1491 19.077C26.2096 19.0402 26.2693 18.9981 26.3286 18.9507H26.3393L26.3074 19.2387C26.2504 19.2932 26.1645 19.3436 26.0495 19.39C25.9345 19.4361 25.7906 19.4592 25.6175 19.4592C25.4135 19.4592 25.2359 19.4141 25.0842 19.3241C24.9325 19.234 24.8152 19.1096 24.7322 18.9507C24.6493 18.7921 24.6078 18.6108 24.6078 18.4068Z" fill="#1334CB"/>
<path d="M27.221 18.869C27.221 18.997 27.2485 19.0829 27.3031 19.1267C27.3574 19.1706 27.4285 19.1927 27.5162 19.1927C27.5968 19.1927 27.6667 19.1854 27.726 19.1712C27.7853 19.157 27.8338 19.1404 27.8719 19.1214H27.8824L27.854 19.3881C27.8184 19.4072 27.7651 19.4236 27.694 19.4378C27.6229 19.4522 27.5506 19.4592 27.4771 19.4592C27.2994 19.4592 27.1594 19.4171 27.0574 19.333C26.9555 19.2488 26.9046 19.1107 26.9046 18.9187V17.6637H26.5348L26.5775 17.4539L26.9046 17.4077V16.9773L27.221 16.9313V17.4006H27.8362L27.7973 17.6637H27.221V18.869Z" fill="#1334CB"/>
<path d="M29.0558 17.6779C28.8992 17.6779 28.7771 17.7271 28.6896 17.8254C28.6019 17.9238 28.558 18.0725 28.558 18.2716V19.4094H28.2416V17.4006H28.5438V17.8201H28.5616C28.6066 17.6447 28.6835 17.5226 28.7927 17.4539C28.9017 17.3852 29.0202 17.3508 29.1482 17.3508C29.1814 17.3508 29.2138 17.3527 29.246 17.3561C29.278 17.3598 29.3011 17.3638 29.3153 17.3686L29.2762 17.7134H29.2655C29.2464 17.7063 29.2181 17.6988 29.1802 17.6903C29.1423 17.682 29.1008 17.6779 29.0558 17.6779Z" fill="#1334CB"/>
<path d="M30.5135 19.1961C30.7363 19.1961 30.904 19.1256 31.0166 18.9845C31.129 18.8435 31.1855 18.6509 31.1855 18.4068C31.1855 18.1604 31.129 17.9665 31.0166 17.8255C30.904 17.6846 30.7363 17.6139 30.5135 17.6139C30.2907 17.6139 30.1223 17.6846 30.0086 17.8255C29.8949 17.9665 29.8378 18.1604 29.8378 18.4068C29.8378 18.6509 29.8949 18.8435 30.0086 18.9845C30.1223 19.1256 30.2907 19.1961 30.5135 19.1961ZM30.5135 17.3508C30.7102 17.3508 30.8839 17.3966 31.0344 17.4877C31.1847 17.5789 31.3028 17.7041 31.388 17.8628C31.4733 18.0216 31.5161 18.2029 31.5161 18.4068C31.5161 18.6108 31.4733 18.7919 31.388 18.9507C31.3028 19.1096 31.1847 19.234 31.0344 19.3241C30.8839 19.4141 30.7102 19.4592 30.5135 19.4592C30.3192 19.4592 30.1461 19.4141 29.9944 19.3241C29.8427 19.234 29.7242 19.1096 29.6389 18.9507C29.5536 18.7919 29.5107 18.6108 29.5107 18.4068C29.5107 18.2029 29.5536 18.0216 29.6389 17.8628C29.7242 17.7041 29.8427 17.5789 29.9944 17.4877C30.1461 17.3966 30.3192 17.3508 30.5135 17.3508Z" fill="#1334CB"/>
<path d="M33.0166 17.3508C33.2346 17.3508 33.4052 17.4065 33.5284 17.5179C33.6517 17.6294 33.7133 17.8037 33.7133 18.0405V19.4094H33.4006V18.1294C33.4006 17.9611 33.3644 17.8351 33.292 17.7508C33.2197 17.6668 33.0887 17.6247 32.8993 17.6247C32.7877 17.6247 32.6864 17.6472 32.5951 17.6922C32.5039 17.7371 32.4317 17.8011 32.3782 17.8842C32.3251 17.9671 32.2982 18.0654 32.2982 18.1792V19.4094H31.9818V17.4006H32.2842V17.8272H32.3019C32.3399 17.7134 32.3972 17.6216 32.4744 17.5517C32.5513 17.4819 32.6378 17.4308 32.7339 17.3988C32.8298 17.3668 32.9241 17.3508 33.0166 17.3508Z" fill="#1334CB"/>
</svg>
